<mxfile host="65bd71144e">
    <diagram id="H3J6E4yIXflFNMbQkiJN" name="Operators">
        <mxGraphModel dx="937" dy="531" grid="1" gridSize="10" guides="1" tooltips="1" connect="1" arrows="1" fold="1" page="1" pageScale="1" pageWidth="850" pageHeight="1100" math="0" shadow="0">
            <root>
                <mxCell id="0"/>
                <mxCell id="1" parent="0"/>
                <mxCell id="3" value="" style="shape=image;verticalLabelPosition=bottom;labelBackgroundColor=#ffffff;verticalAlign=top;aspect=fixed;imageAspect=0;image=data:image/png,iVBORw0KGgoAAAANSUhEUgAAAggAAAHkCAYAAABbktcHAAAgAElEQVR4XuydB3wUxRfHf7tX0wslkIQOAoIgoHTpRUCaICBNUBAERECKCCJItwCiFGnSpCjSRJFeRKQpKNJ7r+ntLne3+/+82dvkEgKBv0SBvP3//QDJ3uzMd2bn/ea9N3NSjhxlVTyml8VihpeXFYqiIC4uAaqa9U0xm03w9vZCTEzcv/K8x7Rr/nG1fX19YDAYEBMT+4/L4gKYABNgAkzgwQlIngIhKCgALZo3QECgH3bs2IuDB488eIn/4ideeqkuXn+9Da5euYEh701AQkJilj999OiBKFWqGGbOXIyNG3/J8udlxwfkzZsbH3zQFzlzBmPs2C/x559HsyMGbjMTYAJM4D8lkEYgFClSAMuWfYmCBcMxbNgnmDVryX1XztfXGwUKhIMW8efOXkSSzXbfn/1/b+zxZgeMHTcIp09fQMOGHcWq/mFdIblzIlfunEhKTMTZc5eEt4BWtefP/yoesXnTLrR7tc/Detw9ywkKDEBYeB4kJztw/vwl8eeTchUqmA8+vj6IjIjE1Ws3RbMqVXoWq1fPhsFgxJgxUzF16tdPSnOzpB2yLCNfvlD4+fkiKjIKV67eyJLncKFMgAlkLwIZCoRChfLh/fc/fiCBUKNGRSxZ8gWcTieaNXsDf/11PMtJZqVAeO+9tzBwYA8cOPAXmjTpCpfLJdozeHBPPPNMCcycsQi/7v49y9tID3j11WaYOnUUzp27hLZte4s/n5Rr5cpZoLEzd95yDBk8XjQrd+4cGDSoB3LlyoEJE6bj+PEzT0pzs6Qdfn4+mDVrAurXfwGLFq1E//4fZclzuFAmwASyF4FMBULhwvlRp05VJCXZsHfPQbR8+UWEheXBn38ew8KFK+ByKWIif/fd7njttdYiH4A8D3/8fhg//rQNdetWEx6JkyfP4tq1W2jevD6+/349zp69KEiTO7l1q0YoUaIoHE4ndu3aj59+2obExKQ0PWG1WtCmzUuoUOEZ8Yyf1m9D8WKFMXJU/xQPAq2kGjR4Qaz0f/31QIphqVGjEooXL4zLl69hy5ZfU1bgVGa7ds1Qvnwp2JLs2P3bH1i9egNKlCiCUaMGiLpfvHgFX331DY4dO42dO/fh1VebIyQkB3btOiDEg36FheZBy5cbokRxaocD+/Ydwrp1W0RuhH41alQL4eF5RVnR0bHo0KEFJEnCzz9vF2VTu9JfOXIEYcyYgWjdujEiI6Lx9fxvceLEOaxa9XPKrU89VRjNmzdAoULhSEhIwrZtu0U77fbkTEdz0aIF0bJlQxQoEIZbtyKwdetvgh2gomXLFxEcHCj6PWeuYDRv1gDv9BspyqTcj2bN6qF6teeFd+XgoSNYtmwdkpJS+434NmxYE5Url0OOHIG4fu0W1qzZhN//OCzKaNu2KQYM6AbyXO0h9ms24rvvfgT1I9WJvFI//rgNZ85cSGlHyZJF0aKFVt/IyBhs2LADO3fuTckH8fHxRtOmdcVqevfu3/H008VQs2YlXLp0DV9//S1u3oy4JxN6drVqFdCgfg0R4rh5KwJr124S4Ta9f2RZQpcur4gcCfodlV+16nOw2ZKxefMv2Lx51x3PoBV++/bNULhwAdy8eRs//rgVe/YcTLnv+efL4NlnSyEqKga/HziMzq+1wrff/ohjx06B8l6aNKmDKlUqICDAD1evXMfqNZtSQi/U3iFDeolxu3//n1i58mf8/PMOXLp0VZRPTF5sWBPVqz8Hk9mM06fPiXsuXtR+TxdxqlbtOeGF++GHzejWrZ0YB3/88bfo63Ztm+KZMiWhKC7BfNu23+B0aqKZLybABJ5MApkKBDI8s2aNF8bmxvVbKFQ4fwqJzZt/RZcuA1CyZDFs2rQ4DaHffvsdL7/cA3PnfoLGjWsLj0JYWIiYZF97bQD27/8LTZvWw6efDhNGyPOiybhnz6FCRFDIIn/+MHz11XjQJKpfDge526+gWLGCKQIhT57cWLx4ijDCgwePxaJFq8TtU6aMRMeOLYThfOONwYiPTxRCY8H8z5A7JGeaZ2/cuBPrf9qOSZM/EMZbv775ZhXeeWcU9u1bCxJNn302C+PHT4csSahVuwo+/3ykEDueF02uvXoNx+nT58WPv/tuOmrXriom3eLFi8DHx0v8nMRQ797D8cMPW+4YZWWeKYEtW5ZCklPrcvjwcdSu3U4Y0s6dX8aHH/YTBlG/yGBTO/r1+0gY/Ywu+uwrrzQR4oNyT/SL+vndd8dgxYofsW3bcpBBJoNXpUp5YShy5y6PkJBcmD17AqpWrQBFUYVxNhhknDp1Dl27DhTCjETk/Pmfoly50mke73A40bPn+1i7diMO7F+HAgXDU35PXpoqVVqCkk+//Xa68CS89dYwYcxIbPTu/RqGDu11R3PWrt2MwYPH4fbtSDHG1q6dK8JdR46cFJyNRoP4zK1bkWjS5DWcPZuxB4YEyYgR/dC5c6uUz9DnKKTzxRfz8fnn80RfUXkXL/4Gs9kshHLZsiXT1GnFip/w3nsThAike2mcf/nlaNEu8rBR6IQE2PRpCzF+wnTYbHYMH/42+vV7A9ev3xIipkyZEmjVqidOnTyHDRsWIW9o2rFF71GPHu8LQbtwwWQ0alwrTR3I00Qikfph5sxxov88L2IxZMh4IQao/7p2bYNPPnlfCOIrV64LMfLG64Ow85d94t2jRQL1D40b6sNRoybjq6/uPwSZ4SDkHzIBJvBIE7hvgUCrpSNHTmHLll147rkyqFy5vFgtdu0yEMeOn8aIEe/g5ZdfFB6F5ct+wIHf/8K3365LEQg0CdF/tPJ+//2JYnJduvQLhITkxIkTZ7Fxw05YrGY0a1YfefLkwqFDR/HGG4Nw4cIVISJo0qbJdcOGX3D8+GlUrPisWPHQBKznINyvQCBBsnDhZLFqogmRVltkGGvXroLly9eJlee4cYNFLJzi4suWrsWhg0eE1yK9QKhe7TnMXzAJgYH+wjNAkzIZM1oB0+qfjGWbV94S5egCgUYE5TCcPXdReAaoPuRhqVat1R07I4jPpEkfoEGDGsLgrPx+veA17+tv0axpPUz94iOx0ibBRSs+MvYtWzaAv7+f8Ep0e2MQIqNi7hiEL75YEzNnjIOvn49YHf/yyz4hWKhfhw//FCTwdIGg7xI5cvQkOrR/B9OmjRaij+qxYMEKsZLu1LElij1VCKtWbUCfPiSuZIwa1R/5wvPi0J9HhVEhJqVKPYULFy6jfv2OwiPUs2cHIegOHjqKzRt/wazZS0T/pxcInTq1xJgxg0Udycu0d+8h5M8fCvLKkMdo6dK1GDp0IgICfFMEQmRkNH5YuxlWL4sYVyRwZsxYjA8++DTDl3Ls2MHo1q2tEIa0widhV6xYIbH6NhgNIhdi/Php4rO6QCChun37HiH6ypUrhVq1qoB05ccfz8Tnn38tfjZ//mfIlStYeEO2b/8NJUsUxavtm8FkMmFA/4/w3YofMWyYJhCINRnikyfP4e23P8TRIycxecqH8Pf3BQlD8l60atUERYrkx9atu9G9+xDhXejfvxsoNHj4r+PYsHGnePdIzFBOUenSxUEsqG8okZeMPf0sOioWb3QbjB079qQIBHo+tZ/eu3f6fgiD0YglS6aKn1HbyRtBzCdPniO8QXwxASbw5BK4b4FArmuajGgVXrJEMSxcOEkkzlEy49y5y1GrVmUxkdBqq3nzbsJjQMZb9yDQpEcTHq14yFisWTNHrECvXr2BatVedu9AkFC3blXMnDleGL333puIRYu+x9mzv8Lb24ply9aiX79RQoSQQSZvQaVK5R5YILRv3xy0G4FcpC+//KYwNnTRM0iEkKv4g+F98U6/10UYoWnT18W9JHA8BcLHn3yFbxZ/jnr1quPo0VNo0aK7MOJ0PVWsENb/vBAUH/7kk68wceKMFIFAguaFF1oLQ0CT7YIFk8RnihWrhaio6DtGW6dOLwuRQLkH7dr1EX8aTUYc/msjcuYMEgazTZteou40kZMxpBUr1bdv35FYuXJ9mjLJMO3YsRwUmqC2t2zZXXwWkGC1mgVfqpsuEGi12b37YOzd+ycqViyLr7/+VIigvtSfazaKZ1L/f/fdDGGUSpdugNjYOPcqXBJGj+pCnBYs+EyIMWJFY2TtmjmoUrWCyEF4b8gEcR95LdILhL//3iSEw759B9GixZtiDJEw6devq3Cvx8bGi3ZERESlCIQZMxZh5Mgpoq6ff/6hCE2QgOvUqT+Sk9OGX+iZO3Z8JwzwJx9/hc8mzRIcTCaj8ND06NFBuOQ7dOgrPCW6QCBXe6dO/USbyEMw/+vPUK9+dRw7egr16ncQuRRk+MndX6fOqyKEQH03d+7HaNK4jgi39e37Ycp9xH3SpDlCjJBngXhoHhAJqqoIjw25/8ePH4LTp86j9StvIS4uXuQgUEhs8eJVIgeBPte9+6sYO3aQCA9SHUmck+fCaDRi/foFKFv2aSH669Rpi86dWwsPAl2bNv2CHj2GIj4+AXXrVhfvNbWPxh6JZ6oP8f83thU/uVMvt4wJPPoE7lsgULy3Zcs3xeqdXOk0adAqZNy4aWI1UbNmZSxdqgkEPUmRJlddIJCh7dDhHTGBkyE+f363cFd++OEkTJu2MIUUrVB++GGecLGS8Fi6dA02b9ZcmTVqvCIMsX69887rYjvcg3oQpkz+EM2a18fBP46gfoMOGfaS7vJNn6ToKRDmz1+BZUu/RKnST2HSpNmYMGFGSpyaVqszZ4xFk5fqChc9GRZazVGIgVzir78+UDxXy+fQ8gmqV2+VYUIerc4nTR6RJklRc/0vEfHpLl3eFSte/QoPz4NvvpkqVuskTmg16zmZU8x/3bp5IsY+YMBokdiW/iIjoAuEH3/cgq5dB4m2UVjiiy9GifLIY0KGmS4yjs8/X1b8vWHDTuJ3rVo1wptvthcrWzJ8589fFqKEjHO7dm8LL8UPa+emCAQ9STG9QCA3/t69a0TZdeu2T7Ptkcr+7bdVwuiRgKXcDz3EMHDgWMyfT0ZfxkcfDUDPnh2FgSNjmX7HCyWCfvHFR7h9Owr16rUX+Sr6ReKHxrFBljWRvP23FIFAIRVy0+tXi5YNMWf2RGFQixWriTlzJgrvDxlxaod+UZgqNDQEe/ceFIaXxjIJCRJWtWu/KrwsdNE4olwV8qBROI0EGIUgyLNx+fJ1tGjRTXgHZs+eKASCnqRIIZ+JE4eKXInffvtDjBF69/Sra9dX8Mknw0TY5cWGnVCnbjUhEKhfK1RokpKfQHznzPlYhFGoTcSP8l/Wr98uxA5fTIAJPLkEHkAgRItVH7mVaSVHOxbIiFOW+aefzspUIFDCHsXjaYIjd+nZs1oiF8W7yU2tX7S6/emn+cI1u3DhSixbugY/rV8gfk0TF7k+9YtWdbRCelCBMH36GLz4Yi2x8qY2ZXTdj0CgyXjp0i9FguWECdPEyk83xGQwaecBGUlyQZMRIAFFAmH16o3o1m2weCyJrcOHN4q/16zZFkeOnLijOhkJBGK/fv1CIRDIe0ArWf2isAT1D03qU6bMFWcJeAoEStgkDw6FQN56a7jIN0h/eQoEEj8kBOmixEJqF7nWyfBkdJAR3V+wYD4QZ4vFgvXrt+HoURIMLwrDRm7uBxEIFKbZufM78fyKFZumySHImyc3/jj4k1jp9+k9Ar/s2psiEEj8LFz4vRAIlHT61lsdRWJgx479EB2d1rhRgu1nnw0XHi0SONfcWy7pmRSPJ88HeSLefHOoSETUPQivvtoHmzalJiU2blxHeNdIEBUqpHlMqM+pPBID6S8STZ99Nlsk+ZJAoDyK0qXrpyQAUsiDQh+0YqdcDMpRoDFFSZr3EgjUf59+OhwdO7YUSZwk8Dz7ivqRQkUkiJo06QJK5CWBQEafhI1+ETsaL+SNaNFCC12RUJg9eylGjpz85M6M3DImwATw0AQC5QOQV4Fcoe3a9RbGw9ODQPFPcqWSu5Nc0gcOrBOTHMVRu3Z9V2Tf0/Xss08LlzutrsgozZu3HMeObRE5Cx988Blmz14iJk+xQp85TsRfdYFA8ffFiz8XK63Ro7/AtGkLYDIaMXvORHGfnqRIqzX6LyEhQazWyGVPBpQMAE3sNBnTZE0igVbC5Bomg0iXpweBEtfIEFOoZMOGnejVa1jKypSy1r/9dpowiORpGDhwTEqI4UEFAhkEaisZLxIDJNLIuO/f/4MQW7NnLxOeGN1tTtsGKbGMeAwd+rHI3ve86FyFzVuWCP4UqyZDSu5suoir3lbdg0ACg7xEdFGYgBIUKXm0T58R+OknzXNB7v7Q0NxiRUplfTjiHbzdt6tgSyEk8izVqVMFCxdOEYx1gUB5KLQ9j8bHm2++l2GIgbLmjx3bKk6w/PLLBRg37ktRHhkvynshIUJ91rp1T5FTonsQHkQgvFD9eaxcNUu48Lt3G4wff9oqQgz0DMqT+OCDd0T4p3PnATh06EiKQJgzZ5kYl8SMxNqECe+J1T55ICpXboHRo98V8X3KZ2jQoJPwENBFuxGoPTdu3BaeGV2Q3rhxC6VK1Rf3kJEnD8RLL9UTO2J69xqOhMQk4RWgvBxdIBBzGh8UrqJdIBTKo5ARhTdoWy7VhTwdlNdDF43zKZNHoPUrTYRXp3bttmjduokQCCRASKDoF72rFO4jURcamke0h5Iuqd6lStXjKZQJMIEnmMBDEwgUbiC3NnkXyGhQQtaaNRtSQgyeAoF4UjyYJnYSEZTsRIlSFrMZL7d6Ec89V1Zk35MrmJK/KMmLTk2MiIgWLmPa9kYJhK1aNRaTly4QZEnGwkWTRcY2rTrJM0FbMF97rZUwqLpAIDc3rfLod+SSpucnJiShcpVyYsvhunVb0ahRbSxaNFmslmbO/Aa7du0TddyzZ02aXQx6fgBNyPQ5SvYj7wHlAVA9aGIlLwUlAupJig8qECghk0ICZLDIANCKkHjS5E/bBEkYUHLl778fFoaHVocUXqC4N2XC61tKPccxCaThw/vC6XQIjwa5jqne5HUgwXH06MmUEIOnQCDvxKJFU1C+fGmxS4Bi3rTqpITPtm1fEsmClG9B5b/3Xi/RZ5Q3cu7cRVDuB4UctHi2FmKgXBBa2ZObfPr0RVj8zSrkyhl8Rw6C5gHoJLbZkeAiI00Gi7YOkreCBCkltdJ4+n8EAhnN5cuniy2OZHDJ80DGs3DhfGjfvoVIpiW3Ou2qsNlsKQKBQizkSTp8+ASeLVsS7Tu0EHkn9LNBg8YJt/+MGWNFWI12qVB8n4QBCVYSaHTeCInkYcP6CFHqKRAoTEBhD0rmpNDaqFFTxBZJCpVQH+sCgbZwfjxxKF7r0lqEBmjHzZo1G2G1WoWniMYEvUffr/gJiYk2Mc5JWNFuCkrYpG28+i6G9AKBzvwYPJjOAzksQjs0FmncXbxwBeUrNHmCp0ZuGhNgAg9NINDKc97cj1G/QQ2xCjxx4ozYiqfnIKQXCLTi1JK/2kOWDXC5tAQ7+jl5CCgcsXr1z2JFR0aLvAqU7a5leStidUWrSDJqukCgybpv364iL4EubZ+2KgwS5TboAoGMds+enUSWPV20otW26hnERNioUWcR0/7tt5UoVCi/+B0lk1F2/u7dq9IIBPrM++/3Fs+l+uuJgvRzCqeQC58EE5Xx/woEKmvLliUi50NjexZ1674qOEyb9hFefrlRSjto9wAZFlqptmnTW4iGjJLJdBe0fhaDXm9qA8XulyxZnaFAoAc980xxcdJhQIC/YEd9QrzoT/Kq0PZPCoHQ9jvankf8qS8oAZLa4hliIPf9N998Ljwh9PkGDTqK+9MnKdIugBkzxolkSGoPlUftpBU+ibsWLUmE/S08T/+PQKB20TPo4CbKgfAcZ8Tk5IlzaNZcCwF4bnMkbwl5DogDGVxKciTD/Wq7PmJ3j5bk2F94IbR6a+OceNF47djxHSHOMvIgUJ2Iz9q1mveGuFC9KGxDbdcFAgmZevWqYdkyLQxE99C22RUr1oszGmjHDokSfZxrfaWKHJ/hwz8RP7+bQGjXrikmTx4h3lHyklDbiTmFFSm3hS8mwASeXAJpBALtbx8w4A3kypVTJAfSaocSz2hyowN/aEIgNzftIKDVDp1PQLsS6LAYfYLt06eL2IJFLsjBg8ejV69OYrVJ2fIULvA8JphWbbRVr3GTOuIgHZq0yCVNqy8ybJ4XHQJDcVBKsKMJkIwkTay0EqJVz+jRU4VBpgmZVlgUU6W/04o+IT4RlSqXw99/nxCrVApz0EXbGml1RkaFJknyTJC3QD+Yh1Z4PXp0FKtI2kI4ffpCjBkzSHhJqM0keuii5zRpUlfEaGnLIrXjypVrYnVN7dYP2KE4Mxl58lrQdju6KAxAOxToGjFiUsrhNumHHK1KiTnlO1y/flPssye3Op1/QImDtFIlI0uGk8TZ119/J/6810VGo3XrRmjYsJZY9dqSbMLTQTsKKKFt5MgBoIRHEkfk4va8KHmNsunJc2A0GBAdEycSJWk8kNEkI1ilcnm8/kZbsdOCfkYxeBoz1O+TJ88VWzvJ4FA+CJ23QXWgFbV2FkN3Ee+mkJK+y4RYderUClWqlBPtttvtok9pPz6NS7qIP52CSd4h8jSQ14fqQivuhg1riO2DtEPgbt/bQe3t0qWNEKVeVguSqN57DgomelKep0CgHBqK0VO/kDigHQ4zZi7G2TPaQWB00fNpbFCogM52IJFAIYd5874TByHRRWEk8pLRLpj0JyFWq1oBr732CvLkzYWY6FhxoBftJqE+mjhxZspZFxT+obFA7ycJNcqxoavcs6XEwUvUZyQsoqPj8BP11ZqNad4FCo2kfz6JHwopUP1oOym9O5TvQgJST1B9cqdHbhkTyN4E0giEh4WCJhW67vc7A8jA0uRDKywSIvqxxunrQxMtGQba7kWHHd1rmxUZPyqXJrF73UeTPT2bVuNkNDI6zdAzN+FejPR2kECIi4sTQuFhX+Qxofh/+m169HNtlUjfbHnvNqevE/UXeVjIiOvi6X7qrfWH9q2LlEOSvk5UBvGlssno63kOGZVNZVEb6L7Mts9Rf1BbaUWb2Ti4n3ZkdA/VWa9PejHhKRAo+ZS2TtIYojbQ1sCMxhA9Q+dM45vqfbf7MqoPjS29j+7FkVb3er09yyfxQu8O/Z6ereeZ3C8f/ZtTqX8eZIzcb/l8HxNgAo8egSwRCI9eM7lGTODhEUgvEDI6WvnhPY1LYgJMgAn8NwRYIPw33PmpjzEBctPT7hVa1Y8Z84VIAOSLCTABJvCkEWCB8KT1KLfnXyFAIQ46UplO3bxbSOxfqQg/hAkwASaQRQRYIGQRWC6WCTABJsAEmMDjTIAFwuPce1x3JsAEmAATYAJZRIAFQhaB5WKZABNgAkyACTzOBFggPM69x3VnAkyACTABJpBFBFggZBFYLpYJMAEmwASYwONMgAXC49x7XHcmwASYABNgAllEgAVCFoHlYpkAE2ACTIAJPM4EWCA8zr3HdWcCTIAJMAEmkEUEWCBkEVgulgkwASbABJjA40yABcLj3HtcdybABJgAE2ACWUSABUIWgeVimQATYAJMgAk8zgRYIDzOvcd1ZwJMgAkwASaQRQRYIGQRWC6WCTABJsAEmMDjTIAFwuPce1x3JsAEmAATYAJZRIAFQhaB5WKZABNgAkyACTzOBFggPM69x3VnAkyACTABJpBFBFggZBFYLpYJMAEmwASYwONMgAXC49x7XHcmwASYABNgAllEgAVCFoHlYpkAE2ACTIAJPM4EWCA8zr3HdWcCTIAJMAEmkEUEWCBkEVgulgkwASbABJjA40yABcLj3HtcdybABJgAE2ACWUSABUIWgeVimQATYAJMgAk8zgTuSyBIkGCSzDDLXjBIRkiQIT3Orea6MwEmwASYABNgAvckkKlAsMo+yGUOh7fBD0bJBBkyIJFkYInAY4sJMAEmwASYwJNK4K4CgTwFwcY8yG0pAINkeFLbz+1iAkyACTABJsAEMiCQoUAgT0FeS2EEmUIYGhNgAkyACTABJpANCWQoEMKtxRHM4iAbDgduMhNgAkyACTABjUAagUB5BTlMoQi1FmE+TIAJMAEmwASYQDYmkEYgWGRvFPR6GvQnX0yACTABJsAEmED2JZBGIASb8iDMWox3KGTf8cAtZwJMgAkwASZwZ4ghv7UkAk25GA0TYAJMgAkwASaQzQmk8SAU934eFoNXNkfCzWcCTIAJMAEmwATSCIRSPtVgkP/7Mw9Uyp7kvmEC/ycBg6qNHxcAlQfS/0mRP8YEmEB2J5BGIDzj+wIk6SHNqG4rTxO0ClWbqVVVTNx0VDP9WpVUyDSZu3+t0D/oooOZFEBWXOJ+ler0kKqlPcD9nIdb6D8eS6oqQSIYfN0XATHExJiiESaJv3vBgPIWPwQaTPgzOR6XXE64oECmAeU+IlyV6O80pB7qoLqvOj/smx7NkfywW8nlMQEm8F8QyCKBoMLsMqCsXy6U9s0FAyTYFCcuOuNxKOYG4pRkKG7hQJrABAMq++VFOb8QGFUJLknFeUci9kZdwq3kBCiyoomE/3tC1wyCW324//ScWh9/Q/FfDJ7/+plCZEICeQxMwvyrqOUVgMpefkhyyjif7MAlRzLiJSduqTZEu5ywqy446bTwfzCa/ut2ez6fBcKj1BtcFybwZBHIIoEA+DgNaBhUAHUD88OkSnBAQbSajIO229gacQFRqkOs7GiqtqoSmgUWRpOgIrCK9SAQCwWH7JFYff04bqoJUOin/7d3I6NVufBN/OdmQvVoluffH8VhptcvTT3/SwulArIqI1SW8ZTVDyaYkRsycso0hgxIdGl9LMsA+RFiVBfOOhNwypGIWLcX4f44e4yT9EPpAbQlcfO87j2c/4+x6VG++PQD1O3+OPBdTIAJZCcCWSIQyHVLAqF+YEE0CAyHUVGFgU9WnIhEMr6LOIMjyb7+1YsAACAASURBVLFwSYoIMVhUoHlAUTQJLiwEAl00wcXAiZU3jmNz4iWIuT6DGY8mXZXczDJ9yu00docsxPpSJWPhMVMKFz7doOVaSBLVTJtZ/7HL2T1BUzTlXnOzuE1U3C1R3N4RVZVFfe4rzJBZJMKzAv/EqOm9IYL5BJlEnaqFoshAu/tKPOJBDJJnnR7kc/rb6f68r0LiMjcKyF74Oy4ZISYZ5Xx9YVeScdGmQJYkWCUV3gYDZMmJeMWFwy47tiVEIF60RYt+3b0K2nhRKTyhxcVS5gcxbuizGXw4bfM0Y68o7rHnfpokayMuRWOljB+PgaTf6xl6yqg/RdHaL0TQRXyhmnLvMf3/cM9OsyO3lQlkcwJZIhBoivJxGtEwqDDqBoRDVpxwqSqcqooEOLE28iz22G6CrDrNURZVQvOAYmgSXBBebg8C9UsygE2RZ/FNzCkRdshoFtemXAUWqwl2G+UsULxZgmQ0CmOrOBX4BXjD6XAhLt4G2Z2EqSoSjAbAbDXBlmgThk8VouHus+a9DDeJFPo0TcmKpAmTVMOhGwa3MVAlyKoi7jWYDPD2Movn2mzJcDjpp56G5C71yRhHqvFKJxDu0Av3YRzInimqDItFhq+vRZChPrQlJcNqsSIh1gZFccLXzwp7oh1O+sB9lKtbRF2Q6Yb2gd5Fd+5KLgVoEBiKpEQFt11GhJtceNrHglinCwkuGd6yDIusIkGxIafJCH/ZgEhFwS9JCdidFIkEWYEiie8oveul9YYBRkmF0SQLMepwupDsdEBSjWm+/FwfI9pnaAxIsFgkJNtcgEsV6TVWLy/AICEpwQYRawPVQRFjhrwdssUgylQcTrg0ZZwqI9IhTjOy3L8zWw2QTWYk0Xi/V7vup68eqFP4ZibABJ4kAlkmELwoxBBQELUCwiEpZAxVkVWeqDrxY9Q57Em6ARi0VVmqQCgE2mSpL5AcADZHnsUiEgh6AmM6+nRvgSJ50Ll7c8z6YgWuX74FWVVRtV455C8UjtXf/Iw3+rRGZFQclsxZA79AX9hsLiQlKChXuTDqvlgJcz9fg8TYRJC80I26tsAXU7zHE2l1r/2TBIE+cZtMEiy+ViRE28QKU5vztXu1pM/UaVx3HpBRyBEWhBbt6uLp0vnE544fuYQ1S7fj5tXb7mdqxoHK0J6nlSdc/J5106uSpqapy0z6jL4ApXLE7bJnu7Q6Ck+Mu4G6O5wWzHnyBqFyjTIoV/Fp7PnlMK5cvYoWreti2sdLkZiUgG59WmPlou24duXWfQsEeqLRYhQCLSE2SWvTgxgsFfBSgfJeAciheCHSJsEiG+EtA0bJBYdqgEV2Iq/ZjDwm8h644CvLsEoSEhUXLjlcWB0XgXOwQ5FpZGb88NSekxAWHoxOPZrBL8gLETejsXXjPvy19zQUl9ZH2gpecSc4UD9J8A/yRsduL2H7xt9x/K8zqFLnGTRpUQ0msxG/bDuMDat3wWlzCm8aFBW58vqi54BXYfG2ICY6Hru3H8LuLYcAVU5hpBl9rb6Kuz+1sUGvlAGNX6mJQsXyYtakFbAn2FPGD3lTNEeD1s+6M8RzbD1Jkxu3hQkwgX9GIIsEAmB1yqgfkA81A/JBVigGrMCpKEiCCxuiL2Bf0g0oBtkdYtA9CA8uEMiwlX6uICZM74PenSfg3JFbkGUFr3SvhrLly2DMoJkYNKoHbkfcxLKv1mPI+Lewef0ebFt3AHkKWFCqQklsXnsIBqcRLkWCwaiJBEeyAwajAUajEXZ7MhSxo4JCGbSiNkFVFSTbneLnZcoVQLMODTB5zBIkxiQLjwZN32Zxn4pkO03SnsJCRWBIAAaP7YqQcB+sW7MB8fHxeLZsWWz67k/8tf80VNUFk8kMg8EIp8uFZLtDCBaLxSz0hsvpFAWajEY4nS6xFYS8I+IxkgSH0wmz2SSEALVFdYlYDGRZhslqhovKpJ+7QysmkxEGgwyHwwEXrXQ96itEnL8BA4Z1w/gP5qBQ8Zx48+2XMX/mahhNEpq3rYdFUzfi0oUb9ykQtJ0HBYqGoeBT4fhz/3FE3op7QIGgIj+MaOSfB2djkmAw+CLAQMmwEiKdDtxwkbcqAaEGFRV8/BBqMsFXNtDCHcmKgiiXgh/ionDG5USiIV54szK6Unw5ElD06RC8/2lXfLvsOzxVuCiq16iG4b3n4MzxKzAaTbDbbaK/jSajYO10SsiZ1xdjp/XEN7PW48zxi5j89UD8+tse3Lx1G40aN8DEYQtxbP85Ifco4BFe1A8TpvfFsmUrERqWFy+8UA1j352LE39dhsFggMlsEl4BRzJ5F1yi/2icUl9TfyouB8pVzY+wAmH4+fv9cNoVGI0GmEyUxqmNa0VVxDg2WUxwkSck2fHwdi/9s/mIP80EmMAjRCALBYKEugH5UMOfBAJ5DxTNPS0EwkUhEGi2Jrdq5h6E03CRyrjLVfq5Ahg/ow96dxqHc0dvQ5ZVt0AoizGDpmPI6LcQEXENv+86hYHjuuDsqatYOnMjYmLjUKPmc/h2/o+o07gq8ubPBV8/L/j4euO3nYdRqFgYChTKjXOnb2DZvHVild2yQz0ULJYHVosFe3YcxZb1e9B7SCtUrFkCe3acwIKp62AyG/BS61rIEx6IZLuCnZv248CvR+ByakkHFG55+bU6qNOkDD4c8AUirzjFpG21EA/N4FerWx7V65aDxduEG1eisW7FDly+cAONW9WAn68PVizeAKNRRpcerbB25Rb4+FpRr2FVmKxGHD54Grdu3UaLtnVhNAN/7j+Ndct3wC/IH83a1EJowWA4klXs2nIQe3YcRu6QILTv1ggBQVacPHIVq5dsRVJisjBywgBBgXegGf2HvYFxH8xCoWJ50LhldRzcfwyFiuaDTYnDnvVncPHstfsWCHSjycuAsuWLw8vqhb8PnUBUZJzb23Ivx3jqIAhXjKhqzYlEh4JcJit58BHtAs47EnBOjUeCnCyEiL8K5JdNCDWa4SWZhCfrpjMZp5JpV4MXYk0xQmBltMU3jUAolRsDP+qM3h1HISgwCFMWD8aymb/gj91H0fmtFvhp1VacOnYWHd9ogSN/nxUr/+A8fkIgLJm1AdevXMWE6QMweeIS7Np8EGHhOXDjSgwcdrcHR5ERXjQIH0zojgFdxyMoOADvT+yOb+b8jL/2nUHTtjVRtEQYTGYzjh48izVLt8I/2BftujZBjhAfXL8YhyVz16JcxeKiX5bM+Qnevla81KYWipYIRbLNia0/7cfB/SfQtmtDFH4qBNGRNiyfvwHXLkZ4+O4eoRmKq8IEmMB/RuChCwTdse3tlFErIB+q+4XBoJJAUOFSFSSqLmyMvojfbTfEKoYMxd0FgoQtkWewKOYMnMINnMElAUIgCA/CeJwVHgQJbbpXRZnyz2LM4GkYOronbt++jZVLN2Pk532wbdMvWLv4Vzz9TCG0ea0xRvefha7vNEexUvnw5bi5qNOkKuo2egHzZ65AbEwsho7tjZF9Z+CPPcdRqVZpnLl4DgUL5kHXN17Fh+9Ox1PPhuLl9rUxdeJC3DqXiF6D2kGyAAvmrETJUoXRsnVjjB86F5fORojwh8EkYfik7jh3+gLmf/4TDGKTnnYpcKHo02EYPLoLVi5bjVNnrqJ5q3ooUbwkBvX+GJ16NUFwYCDGDZ4Hi1XGJ7MHY/K4BQjM6YPh497Ejg0HsWrJVrTqWBewJOPHFTuRP7wQftmwH6+93QqhBXNhzpeLERaWB+27vozJoxei2gvPIrRYEBbOXY3Sxcti96a/kBhrc4d6RFaFEAj9hnXB2A9mo3DRENSoU4nWo2LhfenKBZw4EIVL567fn0AQLVUpCiOETbmKJWC2GPD7nqOIi07U3OeZxBso9BPglPCMKQiFzX4IkIE4l4JzjmQcdkYiQiZPTqrRF9tpVRI7WpolaTWDywpvWBBriIdTdt51FU2hAlq2Fy0VgqETuuCrL5eh1NMl0KR1dQzvNQsnDp9Hp14vosQzBXD8yGlUrV4eowZOx7XzCQjO449xwoOwAXt3/o4+wzqifJWn8cP3u7Fq0VYkxdphkEXWjOARXjQQn819F/t//RO5cgcBkhGjB8yEyyGjXI3CuHj5PAoVzY9333sDo/rNRomyRVCpTnF8+ekClHumKjav242mbaqjTIVC+GjATPQa0hm58vph/uxvYTYYYVa9ERMTh26D2mLOtAUoEF4Ihw9cwdULt/6zSYgfzASYwKNJIEsEAokEL5eMWn7hqOofKkIMFCulMEOC6sTWmMs4ZLsBkZEFCWZVQgvaxRBUGF5acry4aP23OeIMvok9A6dEbvSMBUKpCgUxYUZv9O48BmePRAk3+ivdq+CZZ8tg3JDpGDq6B25FRGDxzHUYP30AVn77M9Z/ewBVahZBuzeaYXT/2ejUuwkSbElY+NlGPF+rCLq/2xz9Ok+EqlgwZ80IfDNjHTatPYCa9SqgYIkwRMdEoGHj6hjz/iz4+vuifbeG+PCdWQgO9sX4r/rgl62/48rpKBgsEpq1qYnZU7/Hvm1nQOlnsknBh1O64djfF7Fk+gYYPIyhS3ZhwIj2MHspmDryOyQkSSjwlB++nD8cE0Z+jedfKIGggECMHTQXJi8Zn80ajEnjFiIotw9e79UcQ7tPQ0K0E007V0GDZlWx6fsD2L31bzhdCfhgSg+cOHIGZw5fhyS50LRDTXy3cAOSE51o260pdm38E3t3/I0LZ69DUty7PyQttGKyArUaVsLGdfuQK8Rb5HcoqgPXr92Cn58Vt68kIyoi9oFGuZbVLyEghw8qvfAMIm/F4uDeY1A8Qhz3KjCPakJVcw6Em31gUZ2IcanYa4vDcSUWdtmphU9SYiWpw0d4RVQDAp2+oNTLJNmGKIPtruLGUyB89GVPXLhwCQUL5sPq77Zi6bTtoiyTlxMfzeiJEk8XxcThM7Bnwylh3INC/FIEwq4NB0AnmdduUR5NW9WB02bCJ8O/xrXzMYIxvSP5igbikzkDsHPbbvj4mhEaWgBzJ60RYYyqtUujaOmCcDgThTj5Ytz3iE+MRfe+rbB3x1H8tv4oTp86j1d7NkSZ8kUxa9J3+HTOYHw8YgZ2bTgOSTWIHTKBYV4Y9nEPnD9+FbvWH8SxwxeQnEzv14MkgTxQV/PNTIAJPIYEHrpA0LfuWRRZeA+q+obCKHYwKMK1TiGG3fHXsC/xOiD2q0uge18OKoZGgQVEEpkuEOyyjB9vnsT3cWfhpCSuuwiEwiXz4POF/TH4rUk4vPcaDAYJr/Wrj8CgIEyfsATDxvbUBMKX6zBhRn+sXrkZ65YfQKWahdH+jaZCIHTs1Rgx8QlY/Pl2VK5ZGF37vYT+XT6FpJoxc+X7WD7vJ9gTJbTqXAPzZi6Dl48XXu/5Cj4cMB3ePr7o1KMRRr0zG0E5/TBhRh+sX70dl8/dhEum5DInTv95Bbeu2d2nSDrQuW9DlClbEoO7fwIoJneeuip2QAwZ2wkOlx3Tx62FLcmJsEJBmPbNUHz80TyUr1QcOXMGYczAubB4GfDZnCGYNGYBgnL54uU2DTCq70zYkxSYvRUUfy4cDV+qgbwh4Zg9dSl6vdcG+3Ydwtlj1ylvHqrswLlj13H7WhyKP5cf9RpURpHCBTBp9GJcPBUpEkupPuIUQkrAE7sc6ZQhLYat7VqQYBDbSWn0P4CBoR0SovdlhBcMQalyhXHh7FWcPHwB6v3shlBVhKpG1PPKiTCzNyTVhRinhO2JkTiJBDj0cw70HFH3n/qeAH+nBTlVf5gk4LaUgAhDkmhrRpcQCBJQpFQIBo7pgEF9RqFl6yYoUKAgPn1/Eew2BSYvCWNn9sBTTxfEZyMW4JcfD0OVDAjO6w4xfLUBu7f8gZy5c+HWjdsILWzFqMn9sXLxr1i/fI/IXdAFwvsTe2BwjwlQnS70H90FtngXft28H116tcDXs5bDN8AXvQd3wucfLcfWn/ei+NN5UadJJVSrVhGffbQQZZ9/Cs+QQJj8PT6dPRjjhk7Db9tPQpKMkBRViO0CTwWgRv0KqF23CpbO3oDt6//kEMNjOIFzlZlAVhJ4+AJBeI8lmF3Acz658YJ/mEhEpPACpdUpioLzrnj8HHsZyQq5gYHcsg865CqJ57xywuhhY2IlF767ehQbbVe0jOu72B+fYDM+mdsfV85dx6IZmxGUwxfd322GJfNWY+/2U3h/bDdERt7GnEmrMXpqb1w4dx3zpv6AEuXC0P71JhjTfzbav/Ui4uITsXjqNjxfsxhe79cU73b5FFCNmLlyKJbOWQ8fHx/UfqkiRvWfBbNVxciP38KYodPgcJoweGQnzBz3Pa5cuYGBYzoiwZaMBVPXw2Ix4IU65bF2+U7ERNhAx/zKqoT8xfwxbFI3XL0Yg+VzNsOWkIxnKxbB8b8vwOIH9BrYDnM+XYVLZ6LQpH0V1Gr0HHq/Ngr1GlVFwybV8cnw+ShcPB+69GmGEf2mIyinD5q3aoiRA2aL7XTV65TFtSs3YPWXMXhkd4wbMRX1m9dEjuAgfPXJGricMmo2Lo2Na35FwQIFabGLSxfP4cOPe2HW5yvw16/ntb37gnnKwRIZj0VhfDOO4WdscbWfkg7InScHnq3wFKJjInFo/yk4kl33lzDnPj/jGckbdQNyw0tVEecCdtjicNgZBbtwH6TuCdR8FZog8VFMyKcEwkc2iTF5GreQYNDG4t0uClcUfjoEgz/qjD5dRiE0LBTjpr2DWR//gF1bD6Fbv+bIVywQx46cQo2aL2Bc/5mIj1NQunIx9HyvJcYPmQuTLKH/sM6Y/8UaRMVG492POmHel+uwZdXvmvZSVYQVDcLIT/tg4rC5CMwRhNffbYotP+5A5K0YtOncDCMHzEBwkA9GT++N6RO+R9SNWAQF+uHYifP4dF5/LJy5GiEhOVH62WIYNXgGho7tIcbD3Mlr4VRk+Pt7Iep2FEqWLYi/Dv6NNwe3wbmT17B05latQ/hiAkyACbgJZJlAIFFQ0uSPOgH5YJGMYvKjLAISCkmqE9cVG8444sVugFLmINT0z4c8Bm2vvTBJKnDFmYR5V/7A32qce+tYxv1GRrdw6Zxo06UuAoODxc6Cvw+ewOp5O+B0yujwVhPExUThu6+3oGrDUmjySm1sWrEHN2/cRJ2XqmDelPVo1LoS4hMSsPHbgyhZPhwvtamGL8YspwAIBo9vj80/7MWJY+fw2ttN4Ofnh9jYWFi9zZgzeQ0ibiSiY8+6KFK0EGZ8vBoGkx1t3miAwOBAUeGjB09j9aLfkBTnFKtvsWPT4ELJ50LRskMdBAQFQXEpiIqIwop5W3Hq+FU0bV8RlaqVERno0TFxWLVoM44fuo5c4f7oOfgVeHtbcOHCVRFuWDZ7I3z8rKhR53nMnfKDMOh1W5ZDjfrlBd8zJy9j8fSNCArxRrvu9ZEjRzCMMOHE0bNYtWgbSpUvgsatq4vkzssXrmHpjM2Ij3S4z3J62N+DkbpQ9Q/0RbmKJREfF4vDB0+JlfgDeblVIMRlQLPAvChkMIGOGvgr2YbdSbdgN0pIcjmQ7K6+ewMivFUjQhVfBEgWmCUZkUoCzslxcN7lnA33aBSbdMMKBePVN17EpDHzoSpeaPdGHfj7+uHX7YfQoVtDzJ++BqdPXMTrb7fE5fO3xe6Aes0q4vzZS/h6yjoKLuGVN2qjbPkSIkH31IlzIlk2/pZ2WBe9H7nz+WDQRx2QZLPDpag4e/ISVs7fBh8fL7zWtzECAv0RFx+H4FwBWDF3G2VToEWHOsI7EBMfi68nrcLzVcqg4FP5MO/ztfALtuLVbvWRJyw3nMku7Pj5AI7+dR6vv/0SrD5W2Ow2LJm9GeePREBS754IzDMmE2AC2Y/AQxcI2sJNOwApN0xoFFQQwZIFLkkSmfoOEgp6uIEOnoGCItYAFLYEwkIpZG5XMIUkDsRfx4JbxxBJ8eS7nIOgqQmyAi6YvVVYfIxii589QQLsMhT6uY8q3NaOBNokD1j9DFCTJTjsyTBaJdgTZBit2sFFapIEg5kOUDLAFk/TtgFW32QoDhkOmwSjN+DjZ0RiYiIU1YDkREqaUGCwKPD284ItSoXL6YDB6oJXoAmKU0ZSjAOqg9Lj1JQT7rRvDlBhtrpg9TNBlSXY4lxwJckiWc1gcsDqC5jNBiTEK0hOAIy0F55q5A+YrDLi4u3wMlrhsGkrZZOZyiAjK0M2KvAONsAoy4iNtEOxG4UL3ezlgo+vUWzri4txwJVsELsUfILMog0J0UlwJRlpA2Xqnv6H/V64F6qh4TkRmj8ER/46icR4PQmVPBH3uZJVIfJXnjd4o4F/TnGkd4RLxQFbLFxmLWnxRFIsbLICA3m1FMBPMiK35Isg2SJO9owxOHDOGQe7+NawDBoqquIOtciA2duApHg7ZDogyaKKHSu068RoVuGIpXAS5WvIkAwyFNUJg1k7JMlpI84SZJMEb3+DyJZMjEmCYqc+NUCVZJHIa5QVWPzcBye5JPE5SlCkMwwMXip8/I2w2ewiR8SRqEBxueAdaBHbHGNjk+BIUGHyMcFgBBzxksjINHg5YfUzi78nxVKfK7AGSLB6WWBPTIYtXvtytJTDMh52f3N5TIAJPJYEskQg0ExLiYm0Y7umdwgq+OeFjYy2EAh0YqEmEowGI8LNvihk8YNFHGWrxbTJ0xmt2rH8xlHssN8S3/p47/B26rHFdK9wJatk5Ghqp2lXFROsQv5ysd9dO/VQ+5ZJkgUy6JskxXG6ItXBvblNhDX0A3C0Mxrp33TGkBYndx87TIcjiU/TZK8HvVOPTKYYtnb0re7o1p6pHcOkG0P3AUhkCCg+L2nHU4sq0FHV7pUwbQulfAyZ2uGO44sDcNw5AAbiqx+o5A4PiKoKEaU9S9TffcYetYPqIEsG4W0gbwzFzgXyB0gpeKDR7z6FyZ2jqD1HHDN9n8LA82Eq4OeS0NA7GM95eSNZkRHpcuFacjzyevnhcHIi/rTHCTd7UYMfQgxWeFE8BSpsqhNHHTE4TadzyGkO5E59godA0L511P0NpCIzQz/a233kMrQvGtM6gxpFI4ZEqtYuEs5iOyVlgGidJL5LQhEHWdEY0bxLlMxLv6aRSv2sjxMxxmjrqehK9x3uI69pLIpDsPQjsEX5mlCnS5zuqSdt6oduuQ8D074J0z0wHqgj+WYmwASeZAIPXSB4wqJJLzfMaBRYCIV9g+BwOcUhNeIb+CQZOY1eyCmbYSZzKSYz7Yt7aafDjuhzWBdzAbdp+5k+3z7kntC+KiptdruYyDNaSLon/TuNpm70tQ9llU3Vq+SWLqmhGPczddMqThAQN7lPy9M9+u7dIfdI5XjIdP+F4tyNJmMZqhpQw+qHEt4BoJTPJBeZb8rMN+Kcw4kzTht8VAPyyFZ4ywbYJRdO2WLxhxKHRNoh47nj4SFUPXVUPPiISJWMGVfkXmXf8apk0bvzEBBxEUyACTziBLJUIGirJgnhihmNcxRCeb+82jY/Op9eMojVkm6waJKn1U+86sSe6Ev4Ieo0bhgU8SVNj4pRe5zm2ju+2+fB7dQjPnRTcxmoaXTWRoAio7TRgrI+QQg1eYlVNoWqHCpgUxTxVc8uVUKkChxJisRpVxKEd512ZdzzWwsefRRcQybABJjAwyaQ5QJB86BLCFHNeMEnDFX88yCXyVscC6yfl0deA4fiwlV7LH6NvYJfE28hRtaOAXZ7Yh92u5/48rKFQPB0q7hDRpSHEKLKKG6yItzkBX+ZAl1GEdqKU2y47LThpDMZN+ES4QBtl0bWe36e+AHHDWQCTOCJI5D1AsGNjAyWl2pAIckLYUZv5DL7wt9kEdN6bLIN1xyJOO+Ix1XYkUSuBeHST809eBIXwFk6mtKH859kgO62ivwT8fXeWp6AryqJ/0ySQWxnpK/jipcUOLQkDPf3VmRpL3DhTIAJMIHHlsC/JhB0Qtq3N8qwKrLIOhfeAyiwGYBkkSDnuSx8kq3aYztmuOJMgAkwASaQDQj86wJB+wpl3anrzuEXCXX61yt7UmeBkA3GIDeRCTABJsAEHkEC/7pAcG+41qK+2u7EFK/Bo5KM+Aj2E1eJCTABJsAEmMC/SuA/EAjpNnGlO8WXfQb/av/zw5gAE2ACTIAJZEjgPxAI3BNMgAkwASbABJjAo06ABcKj3kNcPybABJgAE2AC/wEBFgj/AXR+JBNgAkyACTCBR51AGoFQxq/Go15frh8TYAJMgAkwASbwLxBggfAvQOZHMAEmwASYABN43AikDTH4vfC41Z/rywSYABNgAkyACWQBgTQCoWXVtu6vN86CJ3GRTIAJMAEmwASYwGNDII1AOPrXThgNhsem8lxRJsAEmAATYAJMIGsIpBEIJ0/thNlk0r6AkS8mwASYABNgAkwg2xK4QyCYTEb+8ttsOxy44UyACTABJsAENAJpBMKp0xRiMGp5CHwxASbABJgAE2AC2ZYAC4Rs2/XccCbABJgAE2ACdyfAAoFHBxNgAkyACTABJnAHARYIPCiYABNgAkyACTABFgg8BpgAE2ACTIAJMIHMCbAHIXNGfAcTYAJMgAkwgWxHgAVCtutybjATYAJMgAkwgcwJsEDInBHfwQSYABNgAkwg2xFggZDtupwbzASYABNgAkwgcwIsEDJnxHcwASbABJgAE8h2BFggZLsu5wYzASbABJgAE8icAAuEzBnxHUyACTABJsAEsh0BFgjZrsu5wUyACTABJsAEMifAAiFzRnwHE2ACTIAJMIFsR4AFQrbrcm4wE2ACTIAJMIHMCbBAyJwR38EEmAATYAJMINsRYIGQ7bqcG8wEmAATYAJMIHMCLBAyZ8R3MAEmwASYABPIdgRYIGS7LucGMwEmwASYABPInAALhMwZ8R1MgAkwASbABLIdARYI2a7LucFMgAkwASbABDInwAIhc0Z8BxNgAkyACTCBbEeABUK22gLwwQAAIABJREFU63JuMBNgAkyACTCBzAmwQMicEd/BBJgAE2ACTCDbEWCBkO26nBvMBJgAE2ACTCBzAiwQMmfEdzABJsAEmAATyHYEWCBkuy7nBjMBJsAEmAATyJwAC4TMGfEdTIAJMAEmwASyHQEWCNmuy7nBTIAJMAEmwAQyJ8ACIXNGfAcTYAJMgAkwgWxHII1AOHlqB4wGY7aDwA1mAkyACTABJsAE0hJIIxD27FkFSZYhSYyJCTABJsAEmAATyM4E0ggEP3+bhzhglZCdBwa3nQkwASbABLI3gTQCwWiKzt40uPVMgAkwASbABJiAIMACgQcCE2ACTIAJMAEmcAcBFgg8KJgAE2ACTIAJMIF7CwSDMQoSZyjyMGECTIAJMAEmkO0JpPEgsEDI9uOBATABJsAEmAATuDMHgQUCjwomwASYABNgAkyACLAHgccBE2ACTIAJMAEmwDkIPAaYABNgAkyACTCBzAmwByFzRnwHE2ACTIAJMIFsR4AFQrbrcm4wE2ACTIAJMIHMCbBAyJwR38EEmAATYAJMINsRYIGQ7bqcG8wEmAATYAJMIHMCLBAyZ8R3MAEmwASYABPIdgRYIGS7LucGMwEmwASYABPInAALhMwZ8R1MgAkwASbABLIdARYI2a7LucFMgAkwASbABDInwAIhc0Z8BxNgAkyACTCBbEeABUK263JuMBNgAkyACTCBzAmwQMicEd/BBJgAE2ACTCDbEWCBkO26nBvMBJgAE2ACTCBzAiwQMmfEdzABJsAEmAATyHYEWCBkuy7nBjMBJsAEmAATyJwAC4TMGfEdTIAJMAEmwASyHQEWCNmuy7nBTIAJMAEmwAQyJ8ACIXNGfAcTYAJMgAkwgWxHgAVCtutybjATYAJMgAkwgcwJsEDInBHfwQSYABNgAkwg2xFggfDIdbl6jxpJj1xtuUJMgAkwASbwqBIge/L/2w0WCP9Cv1L36F1E3aWk/Jv+JUOFCgnujpQU99/vrJiqyuk6m/6tXVQGJBWSqpeeOig0ySGJcmUVUCW6n69HmwD1nyr6SnTtv15ZfWKh8ZQ6zv5ZNdyN+WeFaONdFKWN6YdX6kOoGBfBBB4ZAgpUSXuPad6nt0UR9oZ+RLYi84qyQMic0T++w1Mg6OZcM9ESIMlQqfcUQFVVSBJNyBlfZrMVyckOqCkd6zlx0w81g0LDQJtBNbOiT6NUvviEJOQEX480AU0yan1IovHfvmgcGgC4/rFAEONV0sfiwxt5LhK8VDtVdk+E/zYjfh4TeJQJkD2gRaGcMn/QWy0kNf3fbUhkSYLJbIbdbr+jMSwQ/oX+TS8QhBfB7EDeEt4IL54TFl8vJMUk4eIfEbh1IR6ymJg9Lwm1atVEkSLFsGjRYtjtye5feggEVYXJCFQoG4bjJy4jJkHzS2gmRoWft4SQXF5ItEu4eiMeiiJBck/a/wKCR/MRKjHShFpmLEhciVdLMPs3zLUEVXVBVVyQZaN47sMzrffTHS7xfK3NRrdYuJ/Ped6jIsBXRu6cViQkunD9VjKUf9gI6gdvLwPy5fFBYpIdl6/HALAIof3kXSpUAiZlPj6fyLa7x0pm7+aT1/aH0yJhZyTg+dJ5kSPIF7v2nEJSsi4QFEhiEQmEh4WiS5fX8N13K3Di5Km0lidHjrIpr6zBGJXpRPlwqv4klqKt/CVa07jd+HortW7QMatwGm2o2Ck/anYtCSlHAlyyEwanEb9Ouopf5p2FSbK6y9JW+3Xq1MGMGdOxdes29O8/CImJiXcYKllyoXblMIwe3gZffLUNy384BEWEJOjRTrxUvxhGDWmJg4cj0XfIXCQmkwjRDV76/iAfBA0gGaQ9FcmVIjXSCxda3YpAiVjF0d/pf/TcVHmicUlrOFLDHhmNBc+ATCq5jFzJbke8mzDVVgvX6E+/20iTJQXPFLUiLK8vDh69jWu3tHrTZKSZ4lRLFuQnoXyZICQkKDhwOBIOFxnM9FdGLdLLcbdHNbi9N5lbSUm1o36Noqj8XDHM+2YbLt9wCSP4z9zp5ImgEqh/tH7T26n9XC9dQXCAhO6daiMiKhrLVh5EXFLacJa4U0lxDAgHgduZ6VGmE62blMGwd1/C5p1H8eHEH5GQpK1htGelip7074hGNwPfm6qgeqWCmDKmLf44eB69B82EQwr2mLeoXfcvFu4cl3rdqAxP74neZ3cXh2lHber40H7uGfrTxii5e+8cRVpIh/oj0NeJimVzICbGjj+OxsGh0LjzHFOpdfHkp499vcb0Fmuf0+qgiWLP9qQvR/di6gGcjN+ilLCo+9f3GtWp75TW5szutRqdqFIhF1yKC7//HYuEJO2d1sapfunjJ6PS0rYx7efSPj/lnZJV4Z01qLJ4O/QnerY+fe9rrPVxorP1HLk683svKu4sN/34Sf23qscdU2KP9yrbhckja6FCmYJo++Y8XL9NdTSKuZrmdxLchQoVxNw5s5CQkIi3+76DixcvpnipH1sPgizTCktzyz8al3t6dBtlJU2oQF+pqsLYFnrBF00/KYEElw1/rLmEmAsuGE0Sbh9KQORhBQaYU165AgXyYcrkSTAYDOjdpy8uXbzsnjvTDgofSzLGD62FymWD0Ont1Th52ZhqolU7WtTLjXFDamL/X3a8NXQtEh1WgqetTjxfV2JKosAA1HwuPwrkzYnte0/gytUoQDZpn3HHgFXVIHIe8oRYUb1iUSQk2bF111Ek2g0gt1XqJK9HsVOnMZoetZfLnRuhd6Jb1Wqf0FxkqQERzbClfWHd+RsqCRk9n+PecXOqWoAPMH1MLRQO80Hnvitw8irxMkCSaDqlF17H7MLLDQthWL/KWLXuEMZPO4xk1TvNlCh6ngJ6KsnDu73qJBw10qTqRTuEmy+j0avCJEXiy3HNUaNiLoyZsg/frDkDGCxC9d//iE9vYEno0aQgA5LTow3axJvaOwoqlQ3El2NrISrKjp5Dt+L0Zf1+aoZLuCeprDpVCyFXDn/s3HMM124lQgKJW62GMhxo81J+jBpQCRu2X8T7n+xDbIrQ0DlpBkMXdqn9q9fdUxJJUBQHalYKxIyx9XHg0HX0GLgGNjm3h/HT+/7eE7L2zLS5QVqtSYhRE0zpxlpagZBqpvVRrI1k8W6kyYzQo77a/EDiRQslpgrp1PeE3sfUsdu6YTg+ercaln9/ABO+Ogy74qWNGfdY8xRC9CMRWpSIoB5y0eojVoriXddaLUmaZ0jUVbxvnkIlVRxo9dLznjzbr7Ve4+d+T91vaaoMSi+X9HIzF7kGqKhQygdfTWiMv49fwoCPduN2nDbuNbGjXYKl+2/6T9K+TalvSuoounNcaD9xot4LRRAQ4If9By7gwvU4j2VG6mdSn64JUZozNIFAtSYg7rnDHfOnctPNcBm98B4t0iWg5zNTWVLflysdjqKFgnHs9A0cPnbFvRD0fF9SioNsUDH/40ookj8QTbssQ3SCHxSJxnbqRYuiihWfw+efT8H27dsxfPgIOJ1aOx55gaC9TLotk2A2m+Dj4wOz2YyoqGgkJ+vu9ntw/zd+5TasAqp4iT3Eixg5KhRVhdOUiLoDi+HZ13Jg//IL2PnpJZjj/dyaXoUs3Lna/dT2fv3eRtcur6HnW72wZ88+9wurr3JSGxYabMO8SS/D4YhDp77rEJ0UmDpRq3a0bJAbY4fUwL4/7XjrvTVIStYEgkvSXvFUN54KlyJBNhrw5chKqPNCCbz7wQZs+uUcFJg1ZS0mGzLx2qCsXSkHxg+rj+s37ej+7nLciiFDq4kEXb+JV5mMG3klZBmK4oLLbfwN7jqkvuQ0+ZigCBc3RZpJKJCq16YHz1dci7HRvKrAYjEj2eWES6E7abpMbyC1J0hwomIpH0wb3wS//HoI7008BJvqI8SBNuVpLwe10yST8KqGejUK4Z1hq7D9gB2QdAHnrrHoe+2ZqcKIfqdPJy7x1is6D5XGggtGo8E9QetdrkkhgxAOCaha1hcli/hj/c4ruBxhhgpTSj7J/Q3p1PZrmkRrl6iHRLVzujWi2W3wtX4l14C/fzKa186NhEQVP+2KRKLNo82qInJlDLITX41rgPJlCqLfiJXYfeA2oFpAUoIoUo+1bRqOke9WxEYSCB/vR3SC7i5392JKboLbwKWstFMNkxbq0MpU1GTUrBSAGWNf1ATCoLWwI1gLhxhMqeu+FKF5d1LpBQIJN2GEhP2jvqB2ap629D4wl2AgQVa09b5mJzXBnWq4tPFLKzVh1EkguFdtKWULDHr5bt+bIsHL24UJQ6qgZqW8eG/MJqz/LQYgD5Q++jVVmjo36i+ae4yJ5DQh/t1dSnxE6NntHUx5i9IKBF3iaE2ht1Z/2zwNPo1nertkyJJBS3dSKCSlwuXuNhIl2vuvrftVwUtvp27Y7+wbqrdZcqJXx2fwdteSmDxrH2YvvwS7cue7T++5lnOVUQjG7alQHVpel2KALBvgdC8wNEHsFhCqBKNkw6IvmqJIoVwYNmETtu66CUUU7nIbYK3uNFdpYxHi5+KtF+1yL2Q8FL/bJwkDvfs0noRdSJ0T9daLT9M8RvpOcNfeT13eaENL42iUHRjUqxLaNCuJBd8fx9S5v8LpohCk0T2X6J8SkxKC/RUsm9YE167fQLeBW+CSgsT7n3pp7aKfDHlvEDq0fxXdu/fEb3v2iP5/5AWCbjS8vLzg5+cH+tNgkOFyKbh54yaSbLb7myuz8i5ZhZe/AUEFfGH2NSH+dhISbjhgi3PQyICiqLD4GBEQ6g2HVzzqDXwKIRXN2Dv/PM6stgv3vGI3IvpirJgEtPlJRVBgAH78aQ0uX7qMV9t3hCJE+J0KmH5aMFci5nzWHJevxeKt939GkisopcWyEAg5Me69Wth3KAkDRq5HSK688PU14mZUPK7fTITNRoZYgtloQGgeH1i9gBG9iqDyc6EY88Vf+OXATUD1QkIicP1WlBh8gUFeCAqyoPIz/njvrTK4eduBYRN2ICJORrJiwa2IRCQkJkOWgPC8vsIgRkQmINjfB3lyeSPe5sTFqxGIj6fESy3vQqxLJRXeVgty5LAgONAMxangZmQibsc4kGzXzI8+rWpm2IUmtfKiXdNSOHQsErO+OYT4RPIo3KXTXQn4aEBFNH/xaQwZ8T027rfBpdJLpq9m3QZJVZErWMbyLxvjdlQ03hz6CyLiDO5VuAqjBPj5WJErh69gkWSz4+bNBMTFJ8Hu0F5oCu/kyGlFgJ8Xbt+Oh7fVhLC8wUh2qrhwNQqxcXa43IsrmrCCg/0Q5O8F6jODlCQ+fy3Sieg4IR3u2v8ZtzR1MvP2MiE8txcCA6yIjrPh6q04BAZaacrDtevxcDogcljyhPjCy5tW6gqMSECyQ8XF6wocjtS1k8WgIl9efxjNNowdWAHPPJUbYz7/Dfv/ToCqGhGTkIybtxPEGGnbJB9GDayETTsuYszU3+HnH4SAAC9ERsfj2o0ELeQgAQZZQmgIjREJtyNikJikiAnYaHAiLDQQBoOEy5diYE9WULOyP2aMbYDf/7yB/iPWIyx/MXhZZFy9nYAbt+Jh09ln8s6nl49E2Go1ISTIgtw5fZDgTMb164mIikoSY0l3yWqGWUGuIC+E5Q6Aj5cXbkTacO3GbSTZyARp69WQEG94WQ2IjbYhNDQQDoeC69djkSPAB8EBPjh/LQIRVLbw6GjvtiYcgFKFrPhidG0kJSWj26B1uBrlLW4xGV3ImzcAUI24ci0aLpdmECxGCWGhfnA4nLh0JQ6qbBRlGmUg0McLITm94etrQGKiA9cjEhATZ4fTqbu/NS8AlREcYEFY3gDIBhm3I5Jw7VYCkuz0PuhjyQWrVUXevIFIjLchJkZBoL8F+cICYJRlnL9yG9dux0NVaJEAmE0G5AjyEu+7QVYRGWHHzcgk8e5n6PwVRs2BKR/VxzNP+aNjr1U4cp7eZc07RzU1G4HAAF/kzeuP/7F3FnBWFf0ffs6tvdvL7rKwdHeXgqCAgEUYdJivAjZICghSSiglYWNiYSIgpYRIiHR3bcKyffuc/2fm3CUUBf/q+wrM/RgLe+69M8/MmfnOr47VapCelsOp025c3nPszfYGCA3VSUyIIj4qBo/bR/KpHE5nufHrBppuYLFqlCweQ4g9j+nPNaFkiQgmv7aZnzblSinhcescS86V+400zltshIZqJBaNJiYmknzxmSlZZGW5COIMblmmHSmhUDglikRjD7GTcjqfjDM55OV7TPFRsOJpEBHuIDEugrjoCPI8fpLTs8jMdsk5I9YRu90gsWgU4SE+enetxu3NizL/u2Te/mInft2Ox2OR7fAHzoklEb/UpkkYw/u1Ztqry/lyeQaG5jzPBXeehUWDWrVq8fbbr7Nn9z7uv/9BvD7fv18giI3SYbdTtGgROWk9bg8hTqdUWampqbhc/yuBYML1W3WqNCtKo3uLEFMpApvFis/r5dSefNa9fpxjW85I9ZxYN5SOzzfEE+rCkWBgiTDwnTYwskyzcdYBLx8OWYMlM+Lsstaq1c3Mnv0Kr776OhMnTjYVXXAh+fXaF+3Mo1XTEmTne1mxLp2AXmAGFyciN3cHLQh7D/rZezCT6xuWITJCk5NwxY9pzHjzR87kQIVSoYwdcgvFi2okROYR7jRIyXTg9tnRNRsbt55hzKQluLwOHuxZg84dyhNh8xMf4cbQHaRlWwnoVvJ8dsZPX83ytSeJCbfw8siWlCodydYdqdSvUYTC0eG4fV5+2ZXBjFfXsfdwDoGge6Zi6Wge6dWQBrUjCRWrgQYZOS6WrEpjzjurcbuFiUxs1MF4g0AWcybeQesmEaScttJ72Fq27M3GcrEVyNApVhg+ntmOjDOn6T3kB1IyQ4I4C25aYYrXsBk+OravxNDH6jL9tRW89XmWqb7laUanWqU4evesQ/Wq0UQ4hLDT5Eax4LvDzPt6G/kuDbvVzeP/uY72bSqwY2cyxUsUpUQRcRrXOXLCx6y3N/L9uiMyeM9m8dLv4Wa0u6USmsUtxYFuWJk8ax1fLz2GZrnQcnEpzWv2RichLoTH7m9Iq6aJUqDkuw0270ijeMlIucH0H7GU4yc9lCxiZfTwNpQrIcSS2BADHE91MXjMSo4kn3O7lC1i46XRHSgc5yUh2oPdHuBMlkPOCXHV6vWpTJqxhjy3lS5tizN6QEO27MjkSIrBdXXiiQhzkJOXz+KVqcx852eycwKEh/qYOKI1FUrH8uL07/hhQ5YUjTHhHmZOuIuYKAe9n/mU46kBbro+ntljbyYlxc3BY3nUrlWaELuF5NOZfLrwOO/O+wmfdBHYzj8n/gZXwfwRG7Q45RVNDOeBrrVp0bgIcZFO3D43J9PEeCbx8TfbyBcbpWEQGmqhfZtadLmjGKWLR2K1h5Kb42bTzkxefX8zuw6kY7PojBrQgMb1SrFn72nq1y0mv3/ztmQqlI4ntpCNtZvSGP7CMrJd4hQuUtFM33BAd9PjrnIMfbQB73y4ielzd+PVImVfSsR7mf1SJ9wunX7DP+fEKXEf+KlUJoypY9uSnZlDz8e/wYdTztGbm1Xivk4VKV8yDKsmpLTB0eR8Pv36MPMXbROzXJ48I8OhW4d6tG+dSGJCIWw2C6czc/n+p2Rmzt3ImSwzZkUzfNSrEcOk0beya88xtu/x075VCYonhEnryBsf/cIbH27D77MRGW3hoW5NublJHIWiQ6RFQRzotu118fqHm9ix91RQJJyn5A2NhtWdTB/Xim07k+g3cjm5/qiCowMRTgu9OtWl7c3FSEyIlJ95JjuH5WsymDtvEydOeWQMgTDtly4VxSM9a9OsYbw8cAixeyIpjw+/PMA33+3Fa+gUKeRl5uR7KRrrJjHKh83m51SOnXxviBQjB477efq5r8nM0aWVslrlIvTpVZ/a1SKICA+TpvjDJ3KZ98UeFi7fjzcgLDQGYTa4sXEF7u9SgUqlYrHb7GTk5rN5dzZvfrCJ3ftPS5FgsfhoUKs4D3WtTdWyEYSGOKSVIzU1j08XHeGjBTvweTSKxOtMGNGeSqXsFAr3Een0kOWyk+0Sa4KVQ8dz6T/qW9LPCLFZEHsWIKGQnxpVCrNpazpZ+fbfDeYV+2zhwvHMnDmDWjVr0aHDnezbf+DfLxDETSX8706nE7fbJSeUiLq0WK3/Y4Fgmrciyhj0eqM+WhEfu39I4fjWTKrclED5hvGk/eTjo2c2oGeE4khwkdgkHMNp4fruZShcOZJtC05ybFMGBAzcp7wk/+jB5oo+u5A999wwunXrwrBhI5g//8s/DiAV5nDNj6H78YkYBotYOMyX1fByd5vCjB3cFKvFzo8bTrBk2S9UqVyYu26vgTWkEMMmruWrpSlEOr00qmYnOkLnwa61qV4tkbkf/czWHafk4p+aafDLbj+BgI1KZQJUKmmjVoV4enauLU/4r731Izl5AfyGhZ/3eTmZZiMmQmfu5BupUyWM9CydD+dvQvcF6NqpAXGFIpm/MJmRk77HZ4Rht3kZO+hm7mxVjO+Wb+TLRTuJKxRG7wduoFixYrz05i7emPczIASQ6Uiwkkef7mW5v0tNtu5IZ+ikn0nKCsEqzXLnXqYx1U/XthV4rl8t3v90G+Nf20tAbCZS7xWckk07aXSYj3dntCc6NI/eA79hX1J40EysUTjCwsxJHalVzs3iZVv4evEuqlcpzP3dm2CxxTB4wmqWrE7GaXHz7FP16XVXGfJdFj7/ejPHjqXT9rZq1KhWknWb8+gz4lty8oRQzOOOlok0rBknx7JJgxKULB7H8MkbmLcgCSwFQuZS0sD8vViAbJYAD3aqxICHa+Lxufjki59JT8mla6dGlC4VStopP736reLAMZ3YKDdd25eieJwmT303Ny3D8VQ3Dw1ZxaGT5zJrouz53FArQo7r/T3rUrZMAh98uJE9hzKE04LjqTpb9+r4dRtd25ZgzIA6MsDup59P8v2yLVSqEE+nDnXw+EMZOG4lS9ekER7m482JLahaPoah41ewcK15yooNy+HjOe2Ij3Vwz38+51CSRovrizBzbHPsdp3tO06zeNk2KlWMo12bmuS4w3ng6S/ZeVCc+oVL5o8C4mS0jbCbEWY1GPzUdXS+owiHj6Xy5VebCQ+107VzQ8IjSzBw3FK+XXFCzpCmjQozZdTtOIwUFn63iz2HTtHu1hrUqFacFRu8DB27mFyXzrSR1WjTrAzfrzqB7vfQ5uaKJKe7+eqrX7jttmrExRelx+OL2L4vF91iw2oI96KYz6eY+sLd1K8RxX+e/JgdRxzS0iPM+qUT3Hzyeifc+X7u7/cFh1JDZaxH1XI23ptxG1mnc2jT4zsClggSC/l4Y0YPiiXkMvedNWzdnkLFign0vv8GdCOWR4ctYsOODGmt7NC6NKP6NUX3nebj+b+QkZFP5zvrUKZ8OWZ9sJOZc7fg0zWsuo/r60by9tSW4A+gW2I4czqZjDN52EJDefujHXyxIF2K+vs612Bg37rs23WAtz5Yh8vjp/NdtWnSpDLL1+Yw5MVl5OQK11lB4KqYtT76PViDh7tUZsDoBSxek4OfUPM+NgLcc3sVRj9Tn/ysFD79fAu63+Ceu2oRW7gos9/fybQ3tmO1hmDTs3lhZHva3hzHrt0HWbhwO4kl4ujYvjZ5nmj69v+WrYddhDpyuKFuNNFOH48/1IDExELMm7+ZrbvSpck/w2Xlx+0evD47EY4A44e15NYbYtmx8wjffreDcuUTaHtbdWyOsjz49Eds3J6BZrFQr0oM08feSlhIFouX7WL7tiRuvaUqdRuUYd02nSGjFpOeGSAx3srM8R2oVtrHZ19vYukPB2jUoCQ9O9YnPxDFoHGrWL3uFCFOF41rhpAQBe1uqUbTRsVYsfY4i5fvlRlpOXk6q7b5yffaz+4TpoXMjDcRYlvai37ngCn+2ma3MXbsGLnnPPPMAD799PMrQyAULIdiIgszdfFi/wKBIJxFIX6aPl2MuvcVY+uCkyyfcBByNByJBu3GVKV0zXiWjNnH9vlZWDUrAYsHI9RD55frUqxJBMsm7mbPx+KkJHzoBlYRhBTcrIQ/fcaMaVx/fSMee/RxVq/56Q93BWnQloVj/PI0Yqp9c0ZYggJh3KCmHDjm4bEhX5CU7iPMofPsEzdwzx2VePfLA0yYvQO3V/hV3SICgNkvNKT5TRV5/NnlLFqZFPS9iwAooa6F+dyDpntp3Tieic8143iqj0ee/oq0bDN4J6AJn7Cd6HCDdyY3pWq5SF56fT1z55+UPuPraziYOvYuaRbr8ug3HE2GqHAPH8y4leKJhejTfz6b9+RJF03jOmHc2aYCe0/C3E/34AuEmX5/4dPFQARpxkRbycv3kZVnl7EVZhpPgWnUDP6KDNeYOKQx19cP5+mRa1ixIUf6UYPe5yBj4cbQaVI3gbcntWLJD3sYMWUzWS6xmAXQdAsJ0Tqd25bBorn5etFhTp7WCHd4GdGvGe1bl2X2h/uZ/OZmQqw6zz15PT06lOaTBdt54ZUduFw6FUppzJ5wN/FxEfQevpzVGzPkDWzXPNg1A5uex5hhLWnXqiIjJq9h3oKTf1ogiLEPt2bw/oyuVC9nMPrln/h8SRK+gE7rpvGMH9QUt8dGrwHL2Hc8IIPXQjSXDJGtUSWS1ya04kymnweGrOJA0jlzpEX3YdN9OG06syc1pWGd0jw1eBErNqbiF+dWwVMLkQbhbm1LMnZAXdZtSeXZcWs4nhYgLARGPVWHO2+rwJufHWbCzK2Eh8JbE1tQrXwhhoxbysK1Xrm0xUbk8/HsDsTFWOj4SFAgXJfAzHHNOXo8m97955N02iHFwsDe1ejesQmff3eEkZN+wGcIQScsO+fafrGbSDP8VCrhZ87kjkSEuHh08EK27fdg0wJ0v6si93WpxffrTzPulY3o/gBjB9xAh1uKM/eDzcx5fyduj0blciFMHX1yoH0IAAAgAElEQVQ7UVEOBo5fxaoNWUwfVYubm1XgwSe/kFbQWS914Kd1hxk69gf6PliXbvc04j/PLGb1z+noFoeM2hCCpWLxfObO7MX2HYcYOGoF2f5Cpq/b0CmT4DIFgsvP/U9/zuG0MDTDS7Vydt6bcQdZGbm07rEIXYugRnkfb0+7i2NJ2fR95gtOCw8m0LNDKWpWLcIXS4+x5mc3DmsOb0+9m3rVQnl2wlIWfp+KHrDSsHokk0e1kifV3oOWcTTVh8XwcV2daOZOa4Xf7eatDzYzb+FRcnMNGWjt9llxee04bDojnqpLt9vK8up7W5j93k65tlQsZeP+btU4leFlzkcHyMwLlS5Iuf8bOnGRLt6feR+aL537BnxFWlYkyLgNKBZn8PqkeyhZOI9xM1by1dJUaVWpW8XJ1PHtyHM5ePDJbziR7qdRzVBmTbyLpJMneWLoIo6li3gJN717VKbL3Q2Z99UOZr17SMY2Yfiw4+Oj2c2pWKEoQ8b+wNLVwqVqxS/iByxODN3CTfXFGN9KZmYGfQZ+x+GUACH2AI/1qioPU998f4rRU9dLc//APrXodXdZPvt6Ny+99gt5LhtlimmMG9qU0PBQhk/8hS178ihaWKPTLUWktfCzbw+RcsYgIkRj6nNNaHJ9aSa/tpd3PtqDX67jHuxWP8Mev47ud5bljY8PM/n1n/AHrNI6pGtOKS8LXnL1M4M0zBi4i8TSnL02GMvRr38/nn7qCV548UVpub5CYhDO3dYi/uDfIBCEacsa5+Hu6TWIrWVn4aid7P/cjzUghICLqj3DuW1EDfZ/cpqvn9tNSCBKLlR+Zx6dp9chsYmTJRN2c+jDguh3Hb8MpjE3tYiICN555y0qVizHfx56hA0bf/lDgVCwDZpL4YULYoFAGD+4Geu35dF7yDe4vGJhyaN35wo807cRXyw9yqiXN5PjFjEAAexYmDOuJs1vrMjjw9bw3apkNDkBRTCSOEcJs6xGQPNz8/VRvDy8CSfTAjzU/ytSsx1gOKTZXKRLxkT4eHdicyqUjmDQi6tYvMqNZjGwB1J5Y2pbrqtdmF5Pr+SnLdmEOjwMfbQ6HdvXY9f+AD9sOMWO3Yc5ePgEWVkB3AEb3oAQBuJGKKg6afrnC/oevB+CMQjnBIJot1hI54xvTVZOHv8ZvISkzJBglbHzLQ0BHHadpx+qx4MdyzFu2mo+WpCMj1AC4hYULgZNJ8zqlWbM6jWrUKx4LFFhThpUcVCjvM6bn+5j7MyfcdgsjHzyerq3K8/Md9Yz9b1k/JpBCHmMfKIune+syQuvbOTtz/YSEGbhYCVMm57JCyNa0L51GZ6b/CMf/Y5AOGchKdgGz0/oMigVm80nr/eUbq9uvT/kZGYMAU2nUfVQZoxqhmHYuXfACvYfF9ux4KljsQSoVSWUdya2JPOMj4cGr2JfcjCNtyAYXuhju5/XXryORrVL8eSzS1i2McNMoTpr2Dfo1rY0Ywc0YOHK4wybsJEslzD7+7i/bTQj+rXki6UnePaFNTicVt6e1IJq5QoxeNwyFq71ScEkBcKsDsQV0ujU+wsOnoQW1yUwa2xLNmxO4ZEBCwhYCyOubt0whMnP38aJNOj6yCfkikDcYCiaRWa5mGN8LhnNtBqJE3iLRqFMHXMH27af4JEhy8j1hstg0fgoD2WLWcl26ew7oRHq8DFvRgeqVQija9+v2bxbGITthNl9vDi0Gbc0T+TlN7byxkf7mD6yLi1vrEC3x74lzK7x5pQ7WbP2IANfWE2fXjV5oEsjHh60gFUbTxHQhEtAxGL4ebRXDR7uVonx077nk0Xp6IYTv2bFKgRCkXw+ec0UCA88/TmHUsOw4KV6OTvvTm9L5plc2vT4Fq8WTnzEGV6d0I5KFYuyaoObDVuS2bbnCCdOpJHnsuITEYW6hbJFMvjotXul4H/900PkuoWbUyPC6efeDiUJCYG+g5ezcbeIK/HJDJe509tw6GASD/ZfKV10wbPIWbpWS4DOt8czul8LTqRpLF2by/YdRzhw6BgnUkXsRAhun4ZPM9cRaekxArRvmcD4oa345It1vDhnKz6jwKJqcF3dQswe14LU1FP0Hf4DR04Ki0sAhyWHV1+4gcb1KvP0yGWsWHuSeztVYVDfenz4xS7GTtuG1xKOBRdFo/2USbSTkelhX4rDjOg3HNhw8emsJlQsX5iBY1ezZI2oryGsNmYAoogvGPRQWfr0rMV783cxbs5WAnqoDFBsUT+UGWNvZd+xXPoOW0ZWrpVZY+rTuH5Rnhi8lKUbsrFo4di0fCqV0gl3IrPMTufY5L0WZnNTsVxhataoQnzheMLC7NxUO0CZEhZmvneQmXO3IVdkzYrN6mX4o3Xp3qEsr39yhJfe2IRPF6u1RSbABM4zmZo/mu03K/b+0UumBNK7T2+GPTuUWbNm8tLL05RAuDxj7cWvshdz0XlWHSLKWvlmwF5OLPXJTdFq+CjRzkL7yXVIWprJ/IHbsbmjpUAION10nl6Lok1CWTphDwc/1OUJ+devqMhI3n//HcqULc1DDz3MxksIhD/qhykQRJqjEAhu+gz+CpfPiWF4efCesgx9vD5fLT/KyJc3k5tvA0sAm2Hl1XFVuUlYEIatZukP6Vi0EHznpQCaZZstNL8uminDG5Gc7uWh/gtIyRInNxFxbmZuxET6eXfijVQsHcmg8WtYtCofkawR8J1ixujm3NGiJE+MFn72FGw2G8Vicniwew1uaVaJyOhwDEsYaRk2vlq0k3c/3USW1wwYMyuBmeZJi2EPVtMzgy2R5+BzqXkWQ2ztOl1uL8rIp5vz1ofrmfHuHtyEyxPK+cmDQnUXiYepo5pQoXQMXR//mkNHgxHNiIh/KyE2L13vrMFD3esRYvdx6vRpfD5hMrSTEB3CW/P3M27mz9htVkY80Yhu7coxe+7PTH0/HZ9MMczj8W5leeqhJrz10XYmvfYLfiKk31gszjb9DC8Mb0G71qV5btJPfyAQzLobIm1RnB7OjzsXc6JGOT/vTm/HkSQ3vR7/mBx3vLQU1K0RysxRzaTF6t5nlrP/uCkAhJVObFJ1qjqZO7ElGWdcPDh4jTTtn/8yY4N8vPliYxrVLsETzy5h+cbM4ImsIBrboGvb0owZ0IhvVx7n2QkbyBHBo+j0uCWCMYNa8/Xy4wwdvxJHqI23Jt5MtXIxDBq3nMVrRX8M4sNdfDS7A7GFLHR65AsOChfDdfHMGtuC9VuS6d1/IX5bUem3va6andnjW5LrtXP3g5+SnivmgLn5WHWbFAjS1y9lXsE9J7IxfNx+UxEmjmjFspUneHLkMnQtXFrjzKDhgBlljp3YqGzmzb6HkkXt3H7ftxw+KaqWWrAR4PmnGtLj7rLMfG8bU9/cxivPN6JFs3J0fWyhFAhvT7mT1WsPMfCFNfTtVYP7Ozek96Bv+OHn0/L0JwYyMRbemtYJWyCFJ0esZM8xc5OSmREalC7i5tOgQHjoqfkcTgtFWECql7Py7ozbOXMmm9Y9FuMlXJ6YG1Sy8Uiv2tSsVorwiAgpcvcd8vLOJ2tZviYJr9egUZV83n2li9x8hIsGzBRPkc5qC7jJdcHQF9ewenMm6EIgFGLutDbs2nOC+/pvIsslWncuPVPwEtDDrbl0vKUondvXo3hiHNaQULLzNNZtSeeN939i/+E8vOKgoZvpy2FOP+OHtODGBmEMGreC5etyg20xUzObN45myqgb2H8gh74j1pB+Woh7nYAvlynP16Rd69rSPfXNksMMerQpD3QqzYx3djNj7gECMtaiIDnTL9+nW4S/XoyfAysuPpt5AxUqxPPM2NV8t/oMFnGvy+wrYaLXeWFAFTreUZ4XZ/3CW58exbCIIF+D+lUtvPHSnaSkZdJ78HLO5Ifw3uT6VKwQR49HF7NlTwDNYscw/AQ0n4ztEYxFfJGwnD3UtS497qwuMylOncrCG/BRIsEgIsLBrPcP8srcPVKECqgOq4/hj9WjW4fSvPHxIaa8sRVPwI5NpmcL6S3Wvz//Eq4I8b5HHnmYEcOHMefVV5k0abISCH8epfkOoXatCR7unlaThBqhLBm1j4Nf5smUE0PzUL1XBK1GVGH3J8ksGrmPEL8QCFy2QBAxF7NnvUK9+nXo2/dR1q5d/ycj2M/17DcCYdBX5HlD0DQhEMrx7OP1+fKsQBCBLCJ0yc/ssTVo2bwiT45Yx8LvhYtBTPJzdQjMciJwY6NIpo1oQkp6gAf7f0NKZngwE8Pcu6IjA7w7oSUVy4Qw+IUfWfCDi4DNwOHPkJtXozrR9HxqGT9tySHEHoIzzIlNd1O8kJ/yZcKpWD6Cm5uWp3SZErz58RGmzV2LTxc++6AyFiWkxc2OT3ZaBJ1Jn+3ZmgmminZa85k6uhX1qsdy3xPz2XPcdJecfeBBEJlYjps3CGfy8DZs3HKAgeM24PKFBlOZhOvCSp3KoUwf3xrNyGXyrLWs3pSOz2PQ/6Hr6dWxPG99tpcXZm7EYdMY/sT1dGtbjjnvCoFwGo/hx6HlM+LxWnS/uwYvTF/L218cQDfEadAUPNKCMLylFAgjJ/30uy6GgicRiE1PE4V0gilXprNRo2RcNp+81pU8r4Xufd4j9UwUmuanXrUwZoxuGhQIwoJwvkAIUKdqiBQIIsr+oSFrOHTyQoEg2mi3enlzQhOur1OaJ4Z/x5J1woJgRq8Ll5k4XV0gEF5cLwsuiVnT/ZZwxgYFwrPjV2Jz2njjxebUqFyYoeOWsWC1GW8UH+Hlo9ntiYu1nicQCkuBIE7ED/f/Go81QZzxaNUoWka/H0l20b3v5+R6zEBdmasu0sB0r/QPi+qE5zK9ROqan2YNQpg29g627ciiz+BvyPXFoOEhJCSEqOgovF4/2Vl5hDsy+HBme6qXj6DjY6tk0Jkg4wzRmTi4Bbc0jWXKm7/wxid7eWVkA5rfWJ6ujy0izKHx9ssXCoQHzgoEYUEIlULktmaJTBnZnEXLtzN66hZy3aEyo0RKYU2nVLyLT1/vgt+r88CT8zmYItx9uhQI771yOxkZObTq8R0+LVRmZIQ5HNi0bEol2uW9VLlCNHc0r4zVGc/A51ewckMqNcvk8f7snuTluZg0bQ1ncgxhWDB1py7S/GDn4VzO5NlkoN6FAuEXslzCAXJ+7RGR+2klPMyOQzOIcLioWDqUCuXDaVw/kSaNK7BqfR6DxnwvA6Nl+rPmp0oZG9PH3YLPnU+fwUs5mm6XktdMIwxwXd1wZo+7mdQUl7QgHEoS77XKbJvXJ13H9fVK8MSw71j5UxoPdqrC4L4NeP/ro4yctlG6vMS9ItbVmOhw8lwucnJypbiTgpw8Pp5xE1UqFWbQ2DUsXHUGClyPhlk/pN8DRejbqxHvfX6M8bM3oAfC0PFz03WRTH++DYePnebR4SvIynHw6ujqNGpYlj5D17Js/SmMgC4zcWJjRACoxpkzWeT7oFndaF5+rgk+r4sXp65m4/ZMPH6NEU/XpkObisx8by8z5u7FkLULNOmCHPZ4XXp0KMfbnxxh8uub8QRsMv1SWFX9Ig7t/7WpCRGj8eQTTzDgmf5MnDiJ2XPmKIHw/2IpN6EAhtPDDc+IDIay7PwijWXPH8Nw2fFHnaHHjMbEN7CyePQO9n+ah00XC4BpQeg0vSbFmoSx5A8sCCIwc/y40XTo0I4BAwfzzTffnk3D+7NtlgKhdQLjhzRj3TYXfQd9LQWCME0+0LGcaUFYdpSRU0wLgrntenlpcGXuur0qL766j7fm7ZYmcN3wnw2CkY+Q0DQa1rAyc3RT3AEnvR7/iqOpdvSAmcsrVuIYKRBaUKVCGCOmrOGzb3MJWHVql9N5Z1pnfJ4s7um9gBNpdqpVKsHY4XeyZcchxkz8DGyxOK0+mlUPMHnM7Rw/FUbPxz8jw2UPPphKBGMGqFI6jJtb1WLbzuP8uP4YgWDa5PnpWdVKenn/tYdYs3YzA8etw61Hnq0qeEGxmICXUU/VpdMdFek75AvW/OKSRYoKNhshEFo3jWLi0CYcTTrNI0NWkXrKJl0Ozw9swj23FpcWhPEzN+CwmgJBuBjenb+NMbMOSLNqYiEPH87uQdE4P48MXMjqzXkyWE74mcWCaAoEYUEo88cCQdepUj6cNs1rsmnTfjZsTSZgOMyNEHGKO8W7r3SiasVCDB23im9WpMh52LxhNBOH34DPC72eWcGBoEAQfbRowoJwcYFQkMouq8wZLmaPrkfrm6oyfJJwwxwPpouKzBkh2jhPIBzj2Rc3kOsyI+kvEAgvrJLR1VOGXU/LG8sy7pV1vP9lsqzHUaUsvDOtgzw5dX7kSw4lQ3NhQRjTisPJeXTv/T6ncwtj1fMZ8lRt/tOlNl9+t5+hE9bj182KpMKSLmwJNzQqTvUaZVm8ZAOHjuajW8QcMtNqKxbP4/WX7iIkNJwHnvyc3UfF3PVxT5saPPpIW9ZvOsLYSV+g65mMGdCQO2+tzCvvHGDGOzvw6hrlSmi8PbkTMeG5DB6zgh825vPKqNo0Fy6GR78lVAiEKXeyau1BKZL79qrJfZ0b0HfQN3z/8ykCllB5gh/cpyH33VOB4S98xxdLMzFE7ZFgSXAhEwqH5/DZGz2IDDd4ZOBX/LJb7OQu2rYqxoShzUhNzaBNzyV4cdKxXR16dWzCp19t4IPPfsJiCwNvGiMeq0nPLg14Y94BJr+2nXDLGT58oxMVyhZmxIT1fL74MLpdnM4DVKsQS3Z2JsdOetBswowdkC6Gt4MWhPv7/0LmrwSCEDox0Q6GPtWeimWLM+qFd9i+P0uWDa9QzMPHr3fElW+V9VqOpoi1VKw5+XS8tTijnrmBz77cyrjZu/DpIi5DBN1J2U/RGBcfzOxIXLSVQS+u5LuVp7FZHZQvFeCd6Xfi8+bSvc98TqQ7uaFOKLMn3MW+Yzk80O9zcvJFLIObzu1r0+fhe1iwdB2TZy6TlkjxsuJm1nN1uemmykx4ZQPvfHYMzWonIK2gpmf/xto608e3JyMvjG6Pf0pyujiGeHjiweo82qMqi1cmM/yl9bg8BsMfrUzXO6vw0dcpjJv9I25vKEWiDSaNfZC4OCcjxn/ML9tT6XRrccb0r82ufZk8NGgZme5wQu0+pg9vQosmRZj13j6mzt191oJg07w89UBlHutZk88WHWfMtA3k+hxYRO0aYRuz/P8sCCIA1Ga3MmrUKFl3Z/CQoXzwwQdKIPzZzfbs9ZpBwPASWc1P+5drUKhwJNsXpZBxIIeSdQtRsUVhDm9O59tnd0BSjFTJYqIFnC46FwiEF4WLwZyA57/MQFONu+++k4kTxjNl6nRmzJhVkCr9py0JIojpnjaFGTe4Keu3eXh0sLAgCJ+nj/vvKcuQxxry9bLDUiDkuMRpy6wt0PueIvR7uB4nTzn4evF2cvLF7hHC19/tlfUATOUPZYp4mfa88N8VYumqFLZsTyU0PJxte7JYtSGJmEgLcye3oG7VKA4mG3y+YKfsc7ubK1GhdAjzvt7F2Fc249djiI3w8MrYm6hWuRhfLjrAxh1ncNgC3No8kRvqlWDegv289Opm8gPOoAVBg0AOU59vL685nuLi6eHfsetQ3gXBaSK455mHa9O9QyVGTVrGlyvEaVcEHZpx7mbNAtNlUTTeIjcld046XR5bgDsQLU+gZjEUodRFLAO8Mq6lDJ77avlx9u45Tc0qRWndvDRR4X4+/PoIY6atx2qxMvyJRvS8syxpZ+Czb/eSnpFLk+tK06xhMdZvPET/sWs4lRsug81aNUmkXvUY7IabZk3KUKFMFGvWn2DXoWwZePbB/P0knXKfrXHstOTyyoRu3FAvitQMC/c+9gHHU/SgQBDWjjzuvbskzzxcn+z8cL5avIPszExub12X6hXtpJ32SoFwUGQxRBt0uKU8CTE6CYVstG0pMi/8LPrhuHy2x54jLhZ9fwKv30zHE660p+4tSe9763I0ReerxbvJz/cSMJx8s/wQZ3J0urctxdhnGvHt9ycYNmlj0MVg0O2WMMYMasU3y48zeNxqKWra3RTPC8ObknTKz+ff7iIQsNC8WSVqlrfi9Vno8vCXHBQC4fo45oxrKR1IG7ZmsH79YRILR9Hutkq4PXn0GbScHQdFsO65uJSiUbm8/1ofihe18/2PqQwe8y2ZbvP0LbaISGc+Tz1UmS531WT7njyW/7BfBj7edWtVmUExdupqFizPkMGvTeqGMH5oc+yWUNnPY8k5NL++OE3qFWHpyj2MmbaJ0znhzBpVS1oQejz2LSEOePPlDqxee4QhL6yhz73VubdTffoMWsAPQiBoThJj/cwZfwsJcRHc+9jHHE51gkWYxguia3QcRjYDetfj3i7V+HnHGVasOkxsTCitWlagQjGDYyezaNNjGV4tlLqVYNqoVljtkbz/2WaOJweIDgtwf6cqFC4cxnMTVrJoTZY0OnW6NZZn+jbAZ8SweMUeDh3JonhiJG1ursuO/emMfHGJdA8Iy+l1tWJ5Z0Zrdu86wf0DN5OZJ0ZC2huC/+qEhnh54v5q3N+5Nhs3J7Fg6RFZLrlh7Vi63VmNTZuP0W/0StKywmW2itORw4tDb+SmJqXo/fSH/LxHBDiLaV5QXlp4PnPpckdRBj52A6ezbXz17WYZTHlb62qULm7nzffXMefdo7iNSMLsGYwZdD23tKzMhq2nWbvuKNERGne3rYXf8NB/7EI27SgIZBZ2Ci892sYz5InmpJ7y8cU323H5IDwynk8XbCE1DWJDc3m2fz1uv7kqqzZlsmbdXooVjqTDLRVk9tiQcStYs9UnRcX1tZxMGHoD4aFRfLl0L0eOZdOobkmaNy3Kup+PMGLyBlJOh3BdjRCmjGxMWHgo8789wOFjmdStXYZWjUVKsos3PzrMhNd3ySJ15itAu+YxTHq2BVm5fr5YvJ/UDA9OZxgLFh/i5GnfJcvMX3zPE8XRIpg2bRpNmjSmc+cubNu2TQmE/69AELeCsCIEbPnEN7bT+NFylKwZAz4RuKdzdNNp1s08QtY2sAlTlGYWn9GdebSfUJnijSNY8fJ+Dn0UrF73q4aIOg/Fiyfy1Vfz2bJlG//5T5+gef/Xpt5L90BEv7ZvFc+I/k34ZaePfsMWkCdUp+Gj591leLp3Pb77/jhjp4sCQ8JMLZZNP+UTvAztXYOmjUvLBwa5fQEOHHPx7LgV7E8SAYsi3kJUG8ynbfMYnn64LoXjYgjoFnnt3M/2MWPuNqIiw3nzpRupVcbJ+s3HZbWymJhw6Tf/8eeTTJyzmQPHxPeK1MR8apY16HNfLRo3KCNTH8UC7vFlsnzFAV6eu48zucKFIQIFg4F5/mxGDahPx9tLc+hYNv1HbuDQCVHW2izCIxavovE2Xp18G6FaPo8NXcY+GeBUEMBo/iSrlRk+Ot1RluH9mvLevB956c3dBDTR1oIUSLNyY4jdQ/vmsXKhTyhiFsFJT83i8OF0rruhKms3ZTLw+aUEAlaGP9mIHu1Ks337MUKjI4grHI3THuDg0QwmzdzCD9tcMtvDZuQy/PGGZnYE3rMVK8X+ILcxazw9+37D9gNZ0oQrXiFkMnZIM25vXoyDJ/LoPWAFyRlmnZCC8KT4KC+PdC5Fl/bVsNttuDw+Du1PpVqVomS5rPQasITDR6F0cXhpdEsqFC+oWneucK74rGXrMhk2YQMumbcvgOlUKuZj0GM1ub5haYQnXnDYfSCLwRN+5HCKRufbivHcUw1ZsuoEo176hRy32LR1OrYO59l+zVn8wxFGT16HVw8nwi42leLc07YaIaER5GS5+XLhNurWKkGJkonc/9iXHEyBZo3iePm5m9i96whuj5/69UoS7rBzKiOLdz7ewdtfn5aR3ecXQS4cmsKrU+6mcvlovllynNFTNpLrj5Zpr1KPizkS4+KRrqVoe2tVQh2m9eHkyTTmfrSTr1Zm4fKKOerAGeLmprpOnnyoHqVLxmFY7HjduSxevo/XP97LsTQnhmbj5WHVufGGsjzSb6mM8J85oR0//nSYUS+t4aEeVel2Vz2eGb6QlT+fIUAIra6L4+WRN/Llom28OHMHHlHS22INxiiZm5mh+Sib4Gbo4/Vo0qisDCs9dSqbeV9sosvdtfG4Ndo/vAy/HonT6uHWxmE80KUqpcoUwzBCsVq8pKckMe/zPXz8XTr5flGAyUa0M4c2TWJ4sHtNShSPl/x0w8eu3SnMeX8r63b68MssKx8Na0Yy56UW7N2TQp9nt5GdF6w8Giw0LmW24ad4nIcH7irFba3KEx6RYFb6M3LYuzeVOW9vZ93uAD7DKjfUMok6H81ux669yTw1fDn5gdiz0t2UR2YRqXBnPvfcnMB/utaicLyoQGsj353Px5/v4MPPj5GWHWVGmGheyhbT6dutPLe0qojVEkbA8HD0aDqvvr+NhWvzJY+CID7x6dFhbkY8Vp02N1WQsVC+AJzOtdB/+EK279XQLD5KlQjwWLeKtGxaUd5LomDW3oPJzHxzG2u25uEN1p8JsfloUsPJEw/XoXz5wgR8Fvw+L2vWHeLVeXvYd9KKJeAgNMRFx1viebBnHWKjIwn44eDRVNLSsmjSpALfrkhl6IR1BIwCCyYUjnLzVK+KdLitAg5nBB6/LrNChoxeyaa97mD55z+3TwjXccWK5Xn77TfJysqiS5eu5jN/rrSHNQlfs1kHwUJKSipu928fUXnpLfPvuEI+zkhOWt3qw1rERaEKITij7eRn+Diz1w0ZTux+4esXRYbEgVuXQSrOUl5s0TquJAMtXRQB+e2r4OmBY8eO4tZbb6Nz5+4cPXrkogGNl+qNMFvHOPMpGgf5Phsn0iEgza9eCkf7KBytk5Nv42SGTZrmDVlDQaQ7uigUmk+5kg6KFHKSle/haIqHpFM2fIQHT5FC6YsQoDxKxvsoWzKCMFHVLt3FoSSdrPwwYiJsvD2pCeXKRDBi/A/s25dKYu5iyA8AACAASURBVLFIXP4Aew/mk5UXRkALk6ZEIU2E6TrC6aJ4nIViRcPw+AKknvKQlGqQr0cELQPihglmMRgGCVF5VCobQuopNweSRBZFOLoIBgz65G+6rjDjhjZm7fpjPP/yz+S6zQ3AXHrOCQSH3WDysCbUrhbDiAnLpHtBBAgV+PVkvXsZZmdgM3JIjNUpVUyU/tY4fNRFbl6A+LgQ8r2CgRWHVWfYk43o3rYsr727kU++2UliYqiMkN97JJ/0nAh0i/CVi2ApF4lxAeIig7FTsnUFT63QMAIWDqdbcPtNf6R86QHio3KpUj6M4yfyOJEuMi1EdHVB7pgFi81HZIgYH4iPDeFUhpuyJQszelAzWaGxW7/lJKWZWQmJ8T6cFlGetqAo17nnRWS5NFLOOGUNDBHcJdIZbYabmLB8ypdwEBcbQl6uqI7p5kSGA78WRmyEi8QYnQyXQVKGTQaECWNojDNLjm+WG5JPi9gW4W82CLVnU7aYjeKJYRxLymP/sQCJCSFEhFjZfyKAJxAiU2GLF9bJyvaRk+2jWuVIoiIdHDuRy4lUA5cuNo6CB12YQWaiFki5EkIohrD7QJ7kLjZ2szZfcB4YAcLIpnQJjRJFQ8jN9XM8yUPqGSseazQW6V4riAl3UayQjzKlnERGhJCUnMeBE17y/eJELOamhVKxuUSEaxxKscjA3zIJFvLzdZIzbMRFiXHWOHHKT5bbicPi4fkBN9OsQSz9nv2Ujfsjz35XQfvMTAwhjT0UCnVRroSDqGg7B4/mkpRuoWQRi/Rz70kSJbyd0spkN/IoFO6lVDE7ReOcZGZ5SEpxk3rGgsuIRD7TRjx4xSIiNdwUic6nTPFQoiIcpKW7OHrCw2l3KIZFWFuEO0MnLMRNuaLIgltHM8Jl3JVomyzvfHbLFarWh9PIoWRRSExwEh5mIynNzZGTPlz+MPwy8M4s3d7jrho8eX9Fps35gXkLUzCEKC+oMHm2fLHMA5PxO6XjDEoUD8Vi00hOdnE4ScNnREg+wm1gFp01iLBmUbGElYSEMDKy3SSL8cy249MKCtKJ+8QMABUHpuiQHEqVsFEiIYycXB/HUvNJTrfgDYigVdEkkb2US+WSDhKLhpGT52PvURensxz4jRDJs6DEtDiYFYlyU7ZUqMxMOJqUx7ETPlxEELDasItAD03Ur8mnaGyAsiXD5SFw38E8/L4AheOdZLktnExzSGvYufUqQKg1i3Il7JQoEo7Xp3M8OY/j6TY8+vn9utTOcO73Quj07NmDoUOGMHjIYBYsWGhaVq80gSBuUFFyWSyQeXl5BALnKrxdPo6/fqUs7iGt0sEH8IiHcmgeaT0wN9dQmb4jlx/NZpZflQ9iEVuMiIoOyKAS4c/+3cfvGDo1a9Vg2tQp7N13gCFDhpKVlf2nGy8frCMWSStmXq8IJNNFbXC/PIWbVfOEODC3Hb9YLGTqkVlnQARryap+FvE3YjEXEeHBxxJpNtNvLlpl8WE1PPIpfyKoxqxlbiM6wmDu5KaULxXB4HEr+W5Vlryxxa6r6+LmNJ9yGKxqHzwtiMAgEeMsSrIKN4y4Sc57iqJmihgzZU2Y/QVPN4bVgl9YIkQbziY+GiQWcVKpdDgnk/M5cCw/6DI47waRm62O3WGjZpVIrBad3fszyckzXS4XVFySfyx44I2gKQK5xNiKOBNx0hDywUwHFZvtsCeuo1u7ssx+byNT5h42H5ajCxO4sMIEhYqcG37zCZrB2A0zLiIgFz1R6U9EP/s5n0HQOSI2LkMIZRF3YG5OBcpHjM31deJpcWN1lq/cLssqR4WH8Z9e1bm1WSyLl+5h6Mu7cfvE+8yHBcnHaEm+BRtnUEDJ35g1LgqeCGjmCOjYDJcpnIRZX2SUBOtcihlj0zREpWYzPVb8RrinPFgFA4v4rHOCx4yccGORfOwYVnPRtxvCdCtM3GLeiLkhvssMcLMaIjBLFxXV5HcHZ+MFT+UU2TYiitxmePEbYTLbwsR8zookemszwK/5IOCSG6ww7QrLSIEBvWAuaIYw+YrTmlueIs3nZAjhJHMmpF9dVP4veI6IaJ8t+Phs01ws5o0ZfChqR9isBjWrxOKwB9i8NQWfIda4glyL8yxdctMUa49w8QhGfnm6DOgikl0E6RbYRMxPF/e3ICzaYtG85v0m2y5iM8waIjKWqCAd1CJa40ULCNEv0itFuLIkI61o4tPFnBL/F/x1TcTNiM31XBqpabkSa4ct+FwT8d3mQU5YSsQYmQ81Mu958apULp7CsQH27EsnPUusm+b3XfjkSXmTynvPzHsQ65LQXg4CFgeGeBqj5CImm7n5it+LGgfiWpHSaNEdMhXQFDMF89EUNmZWluiTF5uYf4ZwtIr7TdQYOHs3BA8yIhvBI0YVHbMarkh9Lnjiqlz2ZeCgaIJPzncRwyWiYcy9I7g6Ba+RQcYEpDVFrK9CDliswo4rLM8FzyUpWK/M9toQVYSlHVe6ovyyvPU5IXF5G4X5WaVKleDVObNJTk6WT3TMFzX1RR+uNIFweZ3+X1517qxptuLs0vL/apTNaqFLl86MHvM8c+a8xrRpM/B6xc12+Saks1cGH55yriG/buuvm3h+2wt+vlR/fvv7qHBRSfEmypUOl0ViFq0WQX/B3GfxgImCSim/26dLfef57f69awsM7hfZ7X8zMpfi8sfjKk4QYpsVG5kQCM8+cR3d25Vj5nsbeOXdZPwiwFU+hKzAR37+jf9H4/pHHH7bZiEKbYF8Ot6eyKAnm8nUqty8SEIcbqIj89l9II3+w5Zw9HSYzLO+qBK67Fl7qTH69e8L2iuXoV99y8V+90fXX7hw/vG9cal2XnaHgxee366C9/7eGP7R2lAwP+VWdRmNuFg//mjum7E25utSa8flrmGXmo/nf8+lPvP8+/NSbTx/LbrUtZdzb12My+XMk4vN6T8a+0txv9j6+0f9O7/dl9Pe306rghLLU6e+TMmSJXjqqX5s3brtyn/c82XcQVfNJU5nCD17dKd4iRK89NLL5ObmXVF9Cw0R1cZKU7xoGO/N38/mXcJHaN4s5lPeLmfTvqK6fHbzEGlJHW8rRbMGhVm06jALv88/l4MfjBP4p3omzewBPzH2XJrUj6HFjRWIi3Xi9njZf+QMC5Yc4FCyVVbxk+mJ51We/KfapD5XEVAE/j0ExNpbrlxZhgwZyAfvz2PV6tXy8HL24aDKgvDvGayLt8QcLFFBUrhWsrNzzkY1/9tbfvY8pRmEOn0yVzffa6D7xcn512azK6U3f6adps3SGRLAYTPkw2Ly/WawmTDWXvikiD/zuZd3rXmmMHPURdSIPcQqKzvqul+2xesX7piCcRCuosv7XHWVIqAIXB0ECh5fEB0dTWZmpllzI/jIaWm7UALh3z/QpqIrKAb0/zMl/a97aUa9C/+e8KcXFFX5sya3/3Uv/uz3F/SvoL+mj1RWgTwbIfHPMTDjJMQN7wjGvwQrycmALOHDN/2gZlGpc8GIf7aX6npFQBG4sgmYVlzzhHD+Q3CVQLiyx/UKbP3l+kGvwK6ZMXNnX+dM9gXpgucf0f87HAqCOOWN/xvv87k2XJmy88qcI6rVisC/jYDIvvj1S8ZJKQvCv22oVHuuZAIXFwgFPbqwINaV3E/VdkVAEbh6CCiBcPWMperJv5jA7wuE86PU/8UdUE1TBBSBa46AcDGcez6J2X1lQbjmpoHqsCKgCCgCioAicHkElIvh8jipqxQBRUARUAQUgWuKgBII19Rwq84qAoqAIqAIKAKXR0AJhMvjpK5SBBQBRUARUASuKQJKIFxTw606qwgoAoqAIqAIXB4BJRAuj5O6ShFQBBQBRUARuKYIKIFwTQ236qwioAgoAoqAInB5BJRAuDxO6ipFQBFQBBQBReCaIqAEwjU13KqzioAioAgoAorA5RFQAuHyOKmrFAFFQBFQBBSBa4qAEgjX1HCrzioCioAioAgoApdHQAmEy+OkrlIEFAFFQBFQBK4pAkogXFPDrTqrCCgCioAioAhcHgElEC6Pk7pKEVAEFAFFQBG4pggogXBNDbfqrCKgCCgCioAicHkElEC4PE7qKkVAEVAEFAFF4JoioATCNTXcqrOKgCKgCCgCisDlEVAC4fI4qasUAUVAEVAEFIFrioASCNfUcKvOKgKKgCKgCCgCl0dACYTL46SuUgQUAUVAEVAErikCSiBcU8OtOqsIKAKKgCKgCFweASUQLo+TukoRUAQUAUVAEbimCFwgEGz2zGuq86qzioAioAgoAoqAInBxAkogqJmhCCgCioAioAgoAr8hoASCmhSKgCKgCCgCioAioASCmgOKgCKgCCgCioAicGkCyoJwaUbqCkVAEVAEFAFF4JojcIFAKBQbwGLRrjkIqsOKgCKgCCgCioAicCGBCwTCu+9NxmazKkaKgCKgCCgCioAicI0TuEAg7Nu3EpvNdo0jUd1XBBQBRUARUAQUgQsEwv4Dq5VAUHNCEVAEFAFFQBFQBFACQU0CRUARUAQUAUVAEfgNASUQ1KRQBBQBRUARUAQUASUQ1BxQBBQBRUARUAQUgUsTUBaESzNSVygCioAioAgoAtccASUQrrkhVx1WBBQBRUARUAQuTUAJhEszUlcoAoqAIqAIKALXHAElEK65IVcdVgQUAUVAEVAELk1ACYRLM1JXKAKKgCKgCCgC1xwBJRCuuSFXHVYEFAFFQBFQBC5NQAmESzNSVygCioAioAgoAtccASUQrrkhVx1WBBQBRUARUAQuTUAJhEszUlcoAoqAIqAIKALXHIELBcL+goc1aZcAYYBmXHOwVIcVAUVAEVAEFIFrhcAFAmHv3pVYrZfzuGfd5HMpHXGtUFT9VAQUAUVAEVAErjICFwiEp/t1Q7usXV9ZEK6yeaC6owgoAoqAIqAIXEDgAoHgdOZcJh4lEC4TlLpMEVAEFAFFQBG4IglcIBBs9sw/0QkVg/AnYKlLFQFFQBFQBBSBK4rAXxAIV1Q/VWMVAUVAEVAEFAFF4E8QUALhT8BSlyoCioAioAgoAtcKASUQrpWRVv1UBBQBRUARUAT+BIELBILVdgZNU7mLf4KfulQRUAQUAUVAEbgqCSiBcFUOq+qUIqAIKAKKgCLw1wgogfDX+Kl3KwKKgCKgCCgCVyUBJRCuymFVnVIEFAFFQBFQBP4aASUQ/ho/9W5FQBFQBBQBReCqJKAEwlU5rKpTioAioAgoAorAXyOgBMJf46ferQgoAoqAIqAIXJUElEC4KodVdUoRUAQUAUVAEfhrBJRA+Gv81LsVAUVAEVAEFIGrkoASCFflsKpOKQKKgCKgCCgCf42AEgh/jZ96tyKgCCgCioAicFUSUALhqhxW1SlFQBFQBBQBReCvEVAC4a/xU+9WBBQBRUARUASuSgJKIFyVw6o6pQgoAoqAIqAI/DUCSiD8NX7q3YqAIqAIKAKKwFVJQAmEq3JYVacUAUVAEVAEFIG/RkAJhL/GT71bEVAEFAFFQBG4KgkogXBVDqvqlCKgCCgCioAi8NcIKIHw1/ipdysCioAioAgoAlclASUQrsphVZ1SBBQBRUARUAT+GgElEP4aP/VuRUARUAQUAUXgqiSgBMJVOayqU4qAIqAIKAKKwF8joATCX+On3q0IKAKKgCKgCFyVBJRA+EeG1Qh+qvaPfLr6UEVAEVAEFAFF4J8moATC30ZYiAJD/qNJXSB+1jDkH65coaDJ9hsYUvOI//x+XwyM83773+pzgRgTLdOCLTj3d3/b8P7uB11MDP4xp3++TeYo/fconP9NBX0vaMG5eWDOJfNlmBPqoq+C351//X+DmfoORUARuJCAEgh/24zQAfGvBoZuLtBiERSLomb7l4oEA7EI67q5WP96QW7QoD6VK1WUXcrJyWXRosX4fP6LL+pSGZ23WcsfLX8b3d/ZStDQ0QViQ8gDQd38TvGT/o9vkaLPenAnFmLw7PYn22Hi+GeFkvnpQpqZAknMQIuUSeLvxE//zEt8uqFZTEl23mZvCB6iJRLGObFQvHgxmt7QBLvDgaEb/LRuPYcOHfwNHzEHDUOXc9Ji+afnzz/DRn2qInC1ELjCBML//mR2sYEv2AJ0SwBnnI/i1QqRWCqegG6QfjCLg5vSwef8182ZG25oTP369Zk6ZRoWq1iMz21mYnEeM3oUvXr1QDcMDh08xD0dO3PmTOZF+lEwLnLbOPsxmvHfWOB1DEPDoonvEpuV2TxzA/tnN2f5PVKcFHyjuS0XfO1/QyAU9FZ+s2ENNubcePwTAiVoKzMFpSFkyLlxNoQskx0Pis7gHGjR/CamTJlMXFyslC+DBz/LvHkf/WYu1apVk5YtW/DmG2+Rk5vzjwusf91NqRqkCPyLCFxRAkGcyM+dcsUyI5bF/+2rYAvyWwKUqB1O86crElfFjm7xousavv123npqJcbpiH/NYifW9aZNmzJ69Eg2bNjI0KHD5antfKuvEAhjx4ymR8/ufPzxJyxevJg1a37E6/X9FrgcFwsRYRGUKVSS1PQU0ryn/kELQvC8rGkkRhSmXrEaFIlKwOv1cjw7ie3JuzjtOgNSNPxDIsEwsFltVIyvQJXC5SgUHkOWO5v9aQfZm34IT0BYWsRp+p9+maf4WGckTco1xmporDu6idR8wb/AtvA3t0EzcGoObqzUlEhbeNBaEJQqhkFyfhq/HN+KS3cFf6eRkFCYOrVr07VrF1q3vplBg4Yy7yMhEC4cHyEQpk59id279vD86DGkpaX/zY1XH6cIKAKXS+CKEQhCGISGOgl1OtEsFrkZ5Ofn4/cHLrev/8h10qxrgDXBQ6dJdYhrZGPn8pNs/eIkusfAoVtJ/cWH1RMmTeFW3SLN0vKUJU6+8n/CTG6Rf9awYDUCBDRrwTlYns/EycxcTIMnZXFuM3T8wqSrCZOu2T2LYcHQAqZ5WdPRDOtvtsgyZUrz+utzyMrOon+/ARw7fuI3PmEpEMaOpmfP7gwfNoL33v8geM15PuWgUT8xpghNKjWiUen6xIRF8+rnb7Exe4sUDX/vy7ROGLpw4WhUjC9P75t6UiWmHBY9RJ7cXeTz0/ENTFsxF2/AEwwI+fuCRk1RahBisdGu7q20q3ELsdZC4New2AyyAtks3PMDn2z8Gq/u/nu7f5FPMwwLDqude+reSrfaHfH7vbzw3TQ2p+xEl/Pg738JR0ZiaAITOo0hzhETtB8Ev0mHn5O3MW35a5zyni6wI8g56A/4GTF8OH37PsygQc9eVCDYbFY6derIyJHP8cqMGcya/VrQBfZP9OTvZ6M+URG4mghcAQLBwGq1UahQDFGRkXKTEkuFVYgEn4+0tDQ8Hs8/d1L8ndEu8P0K4RIwILYOdJxTFY/Lx6f9fsG1NRo7DnxGvukV1kyfsNVACgXTHC78rOaWI7Y8XRd+a2GwDQTN4waGRZjPpSVXhDaYp0LNwCLFhCka5H815HVawJCfr1utBIwANvllpndeChBN49HH+/DU048zcOBgPv/8y4tu5OcLhGFCILz3gfyO860MMY4oet3UkdolaxCtRRGlR+DGw/jPXmadFAh/9+k9GOegG8TZY3jq9kepEVeJNVvXsvngTqLDIunQ+BZi4mKZ/cM7LN+7Et1izhfz9fe1p1bRqgy49TGcHjsLNy5j//FDlE8sxR3Xt8Fn15m0ZBbb0nZewOsfWTgMjcqFKtDvtt6UCy2FK+Bi7OIp/JKyjYCMB/j7XyKyoVKhsky8Zwxnzpzhp/0b8fi9JmEdTuYn8ePxn8mVc9/kLsj7/H6eG/HHAkFcLUTCe+/NpUSJ4tx33384dOjwfzXk8u8npj5REbgyCVwBAgFiYqKJjY3F5XKRmZmJrutERkQQGRWFx+0mJTX1bKDdf2sYhGEXq5/ilROISAgjurqfeo/GkpcW4Oc5p9BTI+RmfXjXMfJPedA0KwGLRukqhSgUH8vRPSfRAwHK1ytDdEIYeWc8bF15CG+u3wyw0wLEFA2lYp0yRMSFkXs6n/1bj5Cd6kELWDE0P8XKRhNTPIaTR1MoV7kMdqeFPT/uJbpIIUpWK8HJgymc3JEGfstZ+4PTGcq8j98jPDyMLl17cOqUMEUL4XDhBnpJgWBAqYhiPNduAEnHTrI3aT8tGjQnLiqGFz+dxk/ZW6Vg+btfsp1+g8al6zO43dMcPHGEFz+bQqY9G4du4fZyLenRuhsbj29m0qJZeKxi4/o7G2JaL24q2Zg7Kt/MofTjfLL5K/KMbGK0KB695WFql6zJW2s/ZMHuJQTOC9z8O1kUaK8wwni01YPUia9GuBaGZtf+eYFgQINitXnujsH8fGATM1e+RZ4/3wx4NSCgBfBZhPXinEC5XIEgDwCGQbu2tzP5pYnMfGUO06bNxGr7O8fw7xwJ9VmKwNVL4F8vEMSiU6xYIg6Hg6SkJNxusdlq2G02iiYWwWKxkpycfHHf+D85bgZYIvzc8XwlyraKI+DwoYUG0ANgcduxCNN+vsb8537h8LL/Y+884KMovjj+2927S08ISUiogdA7CCIqih0QG4IiiCiCCCgKSBNUQIoURaQIduGvdEGKUhRBKYpK7x1pSSCk5/rt/j9v9i6FlhBywJG3fhAIu7Mz35md95s3b2bsMLhkqCYzWo+qidoPlcOf/zuESvWjUPL2AEgGGdaTKr55dT3sB/2gyjKq3BOOhwZWgn9lWcwqaC4NliMurBhzGPH/ZMIhZ6B5z8po9EIlJBw/i5iqUZD9JST9lY7Qiib4RZvgPC9hYd9tSPzHDA0mwa1atapYtHgB5s9fgBHvj7rscrN8BQIAf82ECFM40swZCJD9MaRdP8SGl8b4BZ9gkxAIRd2p6wGAkhOIDSyLhqXq4nRWPLad3QWn4hQ64MGyd6FXq+7Y/t9+jF05GTaF3PxFlw+JYjUkDQZNgUn1EwF3DtihGYBwBOONFt1RN6Yuvlr/HVYeXqNPAXnl0kRgZsvqD6Hr3R2x5s/fcEf1pigRGoJRKyd61YNg0GQ8UPVe9L2vB37btw5fbJ4FyU+f9rM67EIWeFZVePw3BRUIHlRlykRj4YJ5SE5JR9unn4XN7v3pGq9UEyfKBHyYgA8IBCAoKEgYt8zMrGyDZjQaEBMTI6YaTp+Jh8NxieA5b1YMzfWbbIhspCGonAFRNUNwx/MVkZFgxebvj8OS5gBsGk5vscIRHwxZBVxGMx4dF4fqT0TDdt6OzCQb4k+kCUPqOO/C2olHIJ0PgKG0Cx0/aYjQykZs++UUzh7IQFSVYDRoUR7WExp+6L8L50+k497XKqFRzwo4vD4RZ/am4faOFRFgMmLz/GMoVSMEVRpH4Y+Pj2P718mAwyACEV/p1g2DBw/EW/0HYPHiH4XAutRVEIEgzK57fqMEQjHs6bdQPrwsxi+chL/SaIrh0mlfW7XopsegyjC4DGIKxiXbxJLGEGMo+j7YHfXK1sI3a2Zj1bF1cMjOPLszXNu7PU9nx/HDqJhQPqQMQozBqFO2Oh6t3wJJqcn49NfPcSjruFeWWtKkEjkmqoTH4c0WPeDMsuPLX2ehz2O9ERlcAqNWeHeKwaQpaNPgcbx023M4Z0lCOjLh7xeAdFsGthzdgtU71iHJmixWVNC0msc3VdApBrrf398fM2d+hdq1auPxJ9rg2DGaZuCLCTCB60ngphcIonO5YO6bfhYSEozIyAjYbXaciU+44sYr3gDqiUFw0Tp8gwNlm/uh3cd1kXzEjPm9d8BxmmZqFciqEZJk1AMRTVY8Oq4Sqj0VjdPbzmP16MPI2m+CUA+Q4Mqk4EQb7n6tIpq8UgY7Vp7CujFHIWUGwhVkxv1DKqJB6wrY/vU5rJm+E827V0WjbuWwctweHFmXhOcmN0ZQlAnfvLQZte8rj/veqoTN3xzHpknnoNhMYhw9fsJYPPXUE+jYsTP++effy8YJFEQgeLhSPATFIAxr8xbKhZfFBK8KhJza1I0PTfY44C8H4OmGT+CZ+o/j4H/7Mf63yUhRM8QyRG+FtxHPaP9I9H2oOyqVKI9AYzDSLGmYsfpbbE7aDrt86T0jrrU9UsyKn+qHLs3a44FqzfD5zzPxZ8I2TGo/GlGBEV6fYjBBQdsGT+K5em2QkZGCg8cOweQfiGqVKsMU5Icfti/Dgn+WwCw5RJvz/LoagUDt79NPJ6NFi0fw/POdsWnTn0XqCbrWOuDnmUBxIOATAiF3RZBYoOmG6OhSIrguMTFRTDtc74tGcR4DpcpOlLlHRtupdZBy2IL5vXbDedpPZEmsTqBVBpIG1c+KVmMrocbjMVg78SC2z0iB4vQXPSitZnBRQF2YBR2nNUDJugb8+N52nFpMQYoKyLUd20FG63fq4Ow/FswfvBl3daiKRl3L4ecxu3Dkt/N4bmpjBMX44etOf6HefRXRfFBF/D3rKDZNTIJsM8JoNOLzz6ajadMmaNeuPfbs3efTAkGvc00s7buvxr3o2rQDbFl2zFjzNbYkb4WL1IHsvc2CyPCFK6F4vMoDKBtUGuWiy6F0TGnsTN6Lz9d8gzOZ57JH0EXXPml6Q0KDMrehb4uu+HvPFny9aQ5Ug4rJz4xGZFAkRq/6BFsTdsEF8p4U/SVrGkqgBKoFVsI5ezKOWU7CIPvh0bjm6PHICziYcgzjfv4Epyz6UsvCCARFUTDxo/Fo1+5pdO3WQyyzLcqpoqKnwikygVuPgI8JBE2Ig1KlSolI55TkVLFUT7+Kbp65YNWcs2mTKjlR+h4D2k2tg9SjNszvuRuOM7QxEi3B1Pe1E+5WEgjj4lCjVRmsGbMPO2cmw6jp89h0uciTUNKKF79uiKDyChYO2oqUVX5CONBixdJPqnh8RF2c32PGnAF/4672ldG4S6wuENYm47lpjREcbcJXL/yFus0r4v7BFbF55lFsnpgMyW4QzD7/7DPc0fR2tG3XHvv27bsstwuXOc66xCqGvB6E65yAsgAAIABJREFUEAxrMyDbg7BZTDFcfplj4Q0XLQ2llRqUggxyd99ZqRE6NXsWRoeMb9bOw+aEbbBLNt2rJOt7ZRTlFlu0AZMoGSWvUSyGP4yQEW2KRJcHOqJ6hWqYtXkBlu1aBadoA0V3UUspGxAlAjTL+Udjw/7N+M+aCFnV0K7e4wjyC8TKA+uw99wB/HX0H2S5imbuXl8F496xUZKgaLJYsUABiS7a/VACKpnKYEyHoZDtwOgVH2JP6tHstn21MQhCIEwcj3Ztn8Yr3Xvi559JIPDFBJjA9STgUwJBUWRER0eLvRCSU1Ius6vf9cSnv4tWHJS+R0a7qXV1gdBrN1xndA+C247oRsrPipZjK6FW67JY88F+bP/mPAwggZBzuULMeHZ6PZRuEITF5EFYKEOSVBgUI8o/q6LVu3VwenMa5g/8B/d2qoJGL1fEig924vDaZHSY2gjB0X74qtNfqHtfLB4YEoe/vjmCPyemwGBXhMH88MPxeOyJ1mjf/nls23b5pYhXIxAoqj8MIRj+1ECUK1kWExZMwub07VcMUix86B4ZJ02sDqAFoQ3L1MFbrXtBNsv4YvUsbEr4B1bFns20qPcUdO8PiFIBkSgZVAJJlhQkZdJI2SmCFjs2aoN2jZ/Ez3vX4uuN38Em6cv/iuoiXXRnudswstXb7qM/3DtkEA8XrWSlCRcVR9NOYNTSCYh3XPtGQ9nS2y0QDJKCCmFlEWQMwNHko8hwWsSmVGVMpTD2+eEIsvthBAmElAOFFgjU/qZMnoTWrVvhhc4vYf36jUWFkNNhAkyggAR8RCBoMBgMYqkjBSymp6cLcUDLHW+GqygEgm54NDhMmWjwUinc91plHN+YjFXDT8KW5IASJqHl+5VQ+cGSWP/pUWyeeQwPdKuG27pU0D0I6y4jEL49gj8/SoHBRgJBRc9ePdHvrb54440+WLb8J9BI7VLXpQTC5VhfjUAICgxCZFQkzBYLzp47d9WxI2SsxD4YmoRaMdXR7Z7nUT4gBnP/WIzV/62HWcsUWy+LPQDIWEqquNcj1CIjSiI0NFQs78xIz/CcrFXgZqTBJdJ7rG5LPH3XE9h+cg9m/job6fYUhBrD0PPBLrizbGMs/HcJ5mz/EXay2u7LZDKidOkycLmcSEhIhNN59TEKVBIyxE2jGgKa4vaOaDDKBrS/+1EEBoRixdZfsTvxIP5K3AYzPHsRAGFhoQgPDxffT3JySoHLnHOjfhhZqImWVnZD/XJ18N3GeVi9a53gfGeF2zD4sb5ISIjHqJWTcMp6JluoXa0HgQYBX371OWhnxbZtn8XBg4cKkV9+hAkwgWsh4AMCgTYTUhAVGSl2UqSVDOeTk/OIA30J//WeYsjBXhiB8OsH+7Hjm/NQ8ngQ6PwABxBlxpOTaiG2biRObEnH2UPpiK4SgrKNwnDqQDKW9d0Hy1kX7nstFg1fqoAVH+QWCCZ81WlzjgfBIxDsinAR161XF3Pmzsb3s+dgzJgPLruRT+EEwgCUK1nuih6Ehx9+CO+8O0Qc1jN06HuFXn1SJiAK/R99A7XCKsFstmBv/AFkgtbi0wZUElwGDUt3LMOBpFNwuc9LIA/K0KFvo2WLRzBu/AQsX/aT2JXz6i5VTHHUC6uOfq3eQEhgGLaf2oNjZ48gNqICGlWoh1RzGiauno7dqQfzrGKoUaM6Jn40AeeTUzBw4CDExydc3avdd1P5jNm6wyDc+wGSHyY9OxKRgeEYt+IT/Bu/Gw7F6Z6K0R/s0OE5vNKtK1auXIUJH3501eLMk1mjJOO+2HvQ+/6uSKOVC8e3wuy0oEmF+ihfohwW//sTZm75ARaxB4XH51LwjZKonsqVLYs5c74Th4S1bffMDYkzKlTl8ENM4BYi4AMCAWLUQzsp0pWRkQGXK++8rtVqFUbiRl0qXCjVFGg9pgZSj1ux/O2D0BIDsrOjz4FLcBqz8MC7FVDtwWisn3IU++anQVFNeaYYyEVMmyCFNbSj2WsVEVMnDEbFCIfLgdM7U7Fh8lFk7DLCpThw18sxqP1cDH6bfBD/bUpHmw9qISjShNmvbUeNu8rhrtfLYsv8k9j2WSoMDpMQCEHBwZg7dzYUg4LnOjyP1FRPDEdeelcjEOjJEARi0KOvoWyJMpi87Etsy9hzUVSIqqlo+3QbTJ32CVat+gXdu/e6aoEg9uTTgOolKmJQqz4oIelnXIidKmlraXe0gUN24JPfp+Cv43tpnyix1oE05Ecfjhdb+fbt1x/z5y8sxImBNLWhwuTyR5PohmjXuDViIsoKD5fqcCL+fAIWb1+ODQn/wC7lbqcaGjRogO+/m4WExLN48cWXcOrU6UI1WT36Qm9VevyKCj/NH6MfH4JSQRH4eO1n2HV2v/Ci5D5WuUeP7hg0cABmz5mLd955r9ACgd4Y4DShdeUH0aL+AwgLCxObYjlsNvx7dBvmbPkRZxwp5OAonEBQVdx//3349NMp+OLLr/HhhxNhUHRvCV9MgAlcPwI3vUCgTj0yMhKBgYFuKhd2E5IQDTTlcKUz5r2JlLppNcyM0DgZqkWG+agMxW7MJRD07ZA12Q5TrBMBEQoyTqjQzhnElskUgphzkZFTxGFPUpQdodWM8AvSYDdLyDjohJZogKya4JCsCCgjwRgDmE874EiWEFzZANlPQco+G/xKKAiNNcASb4f9tL84o4Eu2jfijT5v4NUe3dHnzX5YsXLlJb0IuQXCqFFjMGfOPGRmZlzW40AbB8UFl4e/HIgT6SeQJmVctP8A1U+3bi/j/RHvYe68BRg8eOhVCwQSApKqIFDxQ9WgWJg0WkZ6sffIBReOWI4i2WnRN1dyN5svPp+BRx55CB06dsKGDZuuWiCIiHwxFy/DqJpQWglHdFgMgvxDkJGVhsTMBJzTkmGVbVTheYJAmze/F199OQN79x3Ayy93Q1LS+SJoljSV4oKiKqgWVAVGyYCj1hOwqjbasNtdX3okBm1z/NJLL2L06DH48quvCn1Whs5Agr/qjzKmKJQKCYe/0YQUSxqOpZ5GmmyG6t5GU+zZQNsnG42gKZaBA/qjy8svYdBlDmsSq1IUA6ZO/QT169VD5xe74NChw17YtrsI0HMSTOAWJ3DTCwRf4a8fjOQSR+7qRw/nrKtQaa8ESYZBI1+DS/yDSrtBqtQd0lgwx82td6f0d7rPJQIg6XdJI2GgiMA8OqCHAhfFGFK8V39GP5xHFZsXUR7EKj86SIrmqnNt+VuxUkXMnv0djh47htdf743k5IuPcKYzIkaPGikOazp3Lgm7du3G673fEC7fS11C5ogpavfYVgz084o5GmWPHDkC7ds/g/feG47Zs+dc9RbZQiCI8tJOgjmHVOl5ym2QKZCReFP59byEhITgp+VLxQFfTz31FNLTM6/a8OhlErUg6ojWM8h0hobwYuh1QnWbs82wfv4F8ezYsQPeH0Hlnothw4bDeYEnrDBtXa9/KiC1Df1gLr0duMMz3YGFZJznzP4fatSogZatHiu090Jv1x7PBZWb3q9CcYtch0QrG6he6NwMWnGixwk1bXoHBg8aCGp75BEcNGiwOO7Zs9JF7HWiapBkSex9MGXyJ5g+4zNMnjwFLqd3Dp0qDG9+hgkUJwIsEIqotvW13vqhS551356k6aeqcHLrLnBdBHjcxO5lkG5JoZ/CSIadTFuOgaWfkWHUnxcnQYhDmUgA5LxH/xMZRLpoeSSlQyc65vb3k8F66JGHMXTIYKxe/QvGfDD2IkNNHfaLL3bGgw8+IEbZiQmJeG/YcBEDcrnL4953H1R5kUs4IiJCCATaJvvtIUMLMYLOvWDRU3CP9+DC3z2GTM8tme7bGjTA2A/G4Isvv8QPPywuVM1L2csWFRGL4KR6ESnRFId+Oid5a2gZpsdIE0sSR3379sE99zRD//4DceDAwUK9/8KH9FNB9bakTzeQSNLjJDS3UCVS5cqVwafTpuLPP//CuPEfXlOAr6cN60s9qU1SsKW+aRW1SV1C6Yt86V76c4OGDdCr16sICAgUnr6vvvoGa9euyyPQKIi2evXqmDRpotjfhE4RpV1S+WICTODGEGCBcGO4X8e3XnoHAFq98NBDD6Be3boYP+HDS7qbAwIC4OenH6NMB0ulZ9AKgcLPBJPQKF06Bk6nA4mJZ6/v3hW0wZbRhJjoaCRmnwBamGoo3I4KZLpLRkQgKCgAJ8Xx2oV5d+GfIfZ0pgl5gNLSLh13UvjU83+SBBKtQKKYUCo7xQzR2Q056lY/yptWLbRu/Shmzpwlgjj19nbjApDzLxnfwQRuXQIsEG7dui1QyWjzJFpuR16FSxktjyDQ5/mvvbO+1LbZBcpoEdzkeTeVqeiPoi54Bj0kC/5EUdx57XV3LbnI244unVLuE0X1+y/0El1LDvhZJsAErpYAC4SrJXbL3Z9jLK/3qPaWQ8kFYgJMgAncQgRYINxClVm4otzYkWXh8sxPMQEmwASYgLcJsEDwNmFOnwkwASbABJiADxJggeCDlcZZZgJMgAkwASbgbQIsELxNmNNnAkyACTABJuCDBFgg+GClcZaZABNgAkyACXibAAsEbxPm9JkAE2ACTIAJ+CABFgg+WGmcZSbABJgAE2AC3ibAAsHbhDl9JsAEmAATYAI+SIAFgg9WGmeZCTABJsAEmIC3CbBA8DZhTp8JMAEmwASYgA8SYIHgg5XGWWYCTIAJMAEm4G0CLBC8TZjTZwJMgAkwASbggwRYIPhgpXGWmQATYAJMgAl4mwALBG8T5vSZABNgAkyACfggARYIPlhpnGUmwASYABNgAt4mwALB24Q5fSbABJgAE2ACPkiABYIPVhpnmQkwASbABJiAtwmwQPA2YU6fCTABJsAEmIAPEmCB4IOVxllmAkyACTABJuBtAiwQvE2Y02cCTIAJMAEm4IMEWCD4YKVxlpkAE2ACTIAJeJsACwRvE+b0mQATYAJMgAn4IAEWCD5YaZxlJsAEmAATYALeJsACwduEOX0mwASYABNgAj5IgAWCD1YaZ5kJMAEmwASYgLcJsEDwNmFOnwkwASbABJiADxLIIxAMxlQfLAJnmQkwASbABJgAEyhqAiwQipoop8cEmAATYAJM4BYgwALhFqhELgITYAJMgAkwgaImcIFASCnq9Dk9JsAEmAATYAJMwAcJ5BEI9eqX9sEicJaZABNgAkyACTCBoiaQRyDs27cOsiIX9Ts4PSbABJgAE2ACTMDHCOQRCIcOb4Ais0DwsTrk7DIBJsAEmAATKHICFwiE9TAYDEX+Ek6QCTABJsAEmAAT8C0CLBB8q744t0yACTABJsAErgsBFgjXBTO/hAkwASbABJiAbxFggeBb9cW5ZQJMgAkwASZwXQiwQLgumPklTIAJMAEmwAR8iwALBN+qL84tE2ACTIAJMIHrQoAFwnXBzC9hAkyACTABJuBbBFgg+FZ9cW6ZABNgAkyACVwXAiwQrgtmfgkTYAJMgAkwAd8iwALBt+qLc8sEmAATYAJM4LoQYIFwXTDzS5gAE2ACTIAJ+BYBFgi+VV+cWybABJgAE2AC14VAHoFw+Mh6GBQDIF2Xd/NLmAATYAJMgAkwgZuUAHsQbtKK4WwxASbABJgAE7iRBPIIhA0bFkIp0GmOGgD6dbNe5AIpqBvkZi/LzcqY88UEmAATYAK3MoE8AiEk1CrKquVr++kG9SbmIl+FQKBy5Fvgm7isnDUmwASYABNgAkVPII9AMJpSCyAOhISAJN28AkHTrk4gSBILhKJvWpwiE2ACTIAJ+DKBPALBYEwtYFluBrf8laYQCjq9QMUtKqFzpXfeCAHirfwUNt3CPpdfk/RWuld67414Z34c+N9vfQLc7m79Or65SlhIgXBzFYJzwwSYABNgAkyACRQtARYIRcuTU2MCTIAJMAEmcEsQYIFwS1QjF4IJMAEmwASYQNESuEAgpFxF9H/RZoRTYwJMgAkwASbABG4eAnkEgmJIgSRdTYDfzVMQzgkTYAJMgAkwASZQdARYIBQdS06JCTABJsAEmMAtQ4AFwi1TlVwQJsAEmAATYAJFR4AFQtGx5JSYABNgAkyACdwyBFgg3DJVyQVhAkyACTABJlB0BFggFB1LTokJMAEmwASYwC1DgAXCLVOVXBAmwASYABNgAkVHgAVC0bHklJgAE2ACTIAJ3DIEWCDcMlXJBWECTIAJMAEmUHQEWCAUHUtOiQkwASbABJjALUOABcItU5VcECbABJgAE2ACRUeABULRseSUmAATYAJMgAncMgRYINwyVckFYQJMgAkwASZQdARYIBQdS06JCTABJsAEmMAtQ4AFwi1TlVwQJsAEmAATYAJFR4AFQtGx5JSYABNgAkyACdwyBFgg3DJVyQVhAkyACTABJlB0BFggFB1LTokJMAEmwASYwC1DgAXCLVOVXBAmwASYABNgAkVHgAVC0bHklJgAE2ACTIAJ3DIEWCDcMlV5NQXRLrhZupqH+V4mwASYABMoBgRYIBRRJZOJvZyZJXN8oUkuotcWMhkVkqTnSNMo13Ih0+HHmEBRErhSO1QL9SLf+i7FF+nuSTRomrtPkVjAF6ry+aFrJsAC4ZoR6glcqWu7mQUCNAnaLSEQciSY6Fi5Uy2iln09k7m+AoFKVjjZ4U0mGiRJhqZ5csbiwJu0Oe0rE2CBUEQthAVCEYG8hmQ0UgbuiwXCNYC8YY+yQCAPgi4QyINAf84rEMTfJAmaqkJzexu4rd+wBnvLv5gFQqGrOO+kAXVtBj8ZwTFG+IUowk1oSXYhNcEKSaVR+o25hNGUqCvRcyBmFsT/3FMMNDGiyZClm2WawZO3q8uPwWBA48a3weFw4p9//oUsX1myGY0mBAYGwmG3w2yx3JjKyXYn36DX33SvlUFfigYVUSXDkJllgcXmcuey4GN9MqLUikxGA/z9TaK562ZWg93hhMXqFL4Dsr1qnolB9zfi/hm90WOePY7/giAT0xqShKCgAFGWrExLru//yh6BAD8ZESUDkWW2IyXNepFvUlVVNLm9sRAJ27Zug0slPuxlKEi98D1XT4AFwtUzcz+h5XQekgsl44xo1rE6yjWNgLEE9T8STv9jwYIRG4FUf9EZFdXl6QALkh65Kv0jNERUNeoCwSMM3BmSNAn2dAnn9lsBzVCQJL18D014uCBpClTI0CS9mxb4aFR1CZDUabZp8yT6v9UPs2Z9h88+/+KKAoGY3HvvPejd+3Vs2rgJH0/6RIza+PI0bffYVB+uXkcsGgyahkpxwRjY+yksXroJq9Ydhesqp8BIZkhw4r674vD8s3dCgQuKJMGpqli36RC+W/AvnKDvIa/Zp3ahyC7cf2dlhIeF4Oc1u2G2ScLYewT2lWHorCRNRalwBUMHt4fVbMF7Y+bD7qRvi1KRyUdw2WSaNY7BO/1aYcUvu/DprD/hcOnfreeitv5Kt5fxXIfnMG7cBKz5dc0NG3xcx4bBr7pBBHxGIJBd0N1uQjzn+mC0fEaL3iMrOg1Jgxyo4pEhcajxdEmcP5WJvaviYctwwJEuYc/SczBkhuidTLbLkIyRKuYZ9bLkM0Gh5Rrvy/QXMpx65607A3JFOYj35MzBU4dS5aEQPDm2jhjNgEbWuVzxsqbgzNY0zH1jK2Az6bAuYSw97vu87szcUkXPAwU95tyjQaI6c0sTifJN+aef6AW4yP5QHuVgFVFVgqE5NZzdnw44TRDFFvfn7VwpX2XLlsH8+XOxY8cODBw4GJmZWZeNQdDLoeHpNm0wadJHWL78Z/To+RoUhbw+N+a6lCtZ5OTCxu7F7BFVVdMQEVES5cuXR3JyMk6dOpW7qXjx7aKw4leQ0YVBve9Bq/tLo+97S7Fpmw2A0R0rcPHqG099XtguFcmKxx6ogDe6NoVBsyM02IWwUBPmLj2IEZ/sgMMVBEguYaw9qVLgbokQB+bM6IioMD+8+c5qbNp6FoACTXLmidXRq4ae1OMF9PcLiuLncaUcmPNVB2RmWvB457mw2IPdAkGCKtp+7u9E79vouSfui8TEd+/Fd4v3Y8z0nbC73N+kmz49GRIaggnjx6Fhw4Z44YXOOHjwEIsEL7fO4pq8TwgE+vZMJhOCg4Ph7+8vBIHT6URWVpYwBmQEr/eldyqqMHgBZW147quGCCprxNzXtuLsnxo0uwJFcQJOI2QamZObXxhLDbKkuEckHvcpjXkutpa6adVFkecO8XdJH1HnjH/cRtjd01H/I+5wz2NWbG3E41NrI+WEBUc3JgnvhkdykAch9bgZu79Lh+TwA9ydnXvMno1V5FyjvF8cFy6Eh7DddI8+ftMv+js5cWnURP4AvdyarNJrxM8vnD91wYGIhkZ0GHsPXJkKvu21GrZEg0cdXHC/JtrEpI8nomq1qujV63Xs3bM3386S8iQEwicT8dPyn4RAkOULBYIH5sWiJG9byxGt1xYcmW2mLhrZXjjS9UZb1wW4ihdeeAEjhr+Hn35agQEDB8Fms4l697YnQbR0SUPZCBXTRrVCRAkjuvRZgmMJVC/UbnJ/43p+SHxCIqFNRp4Mrv4NifG+5EKgYoW/4gBUF158tipe73Yf5i3dheGTd8PpCoRKnqocnxokqAgw2vBqxziUjgzGpC/3IDHNJDwYEkhM5BbyurQQ3gCRD8+/0TeioWIpB+Z/1QEZGVl4/MW5MNtD3V+Enlf9yit2DbILL7eriIGvNsbITzbgf0vPQBWejgsvDXfffTemT5+KtWt/x+DBb8NstnBgrjc+jGKepk8IBJPJiKioKNDvNpsdTocT/gF+YtSXnp6B5OQUdyd2/WpTlVQYw2TIQS6UqOzEkxNuAwzAdx23QE33g6QqsKfZoZoNkECdnAZDSUAxAbY0BxxODWExASgREQxzugVpp2ikbBBzotTfaH4OhEUHIjDEH+Y0M9ITrdBsBigydX4KlGANQaFGWNIyERQRAslowvlTKTCYZESWDkdSYirUNAAuCbGPyXh8al0cXX0OiwfvgMEVTMNFd+coAS4Nst0fhgAZxmDAaZNgT3PCqNHISYMqA8YgBcZgCWomYMugOVzdwNthR1BJCSWjw2F12JEWb4Yrg/KpQJWcotM2hkowmSSYU6xQFRciKkTQ4A1J8amQrAqg6saZyqSEaoioL+HRkbWgpslY1Hc7LGcVMeXgzFDhMns6Vn201qzZ3fjfrG+x8IdFeO+9EbBare5Rr6cD14UKxSiUK1ce/n5+OHnqJFo8/DAmTfoYy3/6CT179IJMHgS3d4riE8qXrwA/fz8kJZ3HuXPn4HK5IMluGacHckBVXQgLC0Pp0mVgt9uRmJiIrCyzELCewT8JWrrHbDaLtkqCiJiEhoYiICAAqampsFisCA0JQmBAAM6fT0ZM6RgosoxTp04jNCwUkREROHMmHplZmbpJyeVFKR1TGiVLRgixfOLkSSGWKXeUNypzVFSEyHtKSop4X9myZWG12nDmzBmRZ49AK1GiBPz8/PDMM+0w5O1BWLnqFwwfNgIOp1N8W2fPnhNpeksoiHamuVClLDDjg8egajK69lmO+BT6JvS61I20Akm0KxciwwIRGREKs8WGhIQMWJzkIFPcKwDcQlaSIbms6PpMWbzd+37MW7IVwybthssVCCd9w9DggorwMD8EmBQxvRVgsgpJ8F+8C1aXSQwCdIFOv2RImh0GowNlYyLhZ/JHenIqzqbahTjWvYoqKkY73QLBjMdenA+LLRiypCIgyIDgAAOcLgVJaRZoQqzr7SosyIXRg5qjZqUgdO//A44k+AOSZ9ovl69DkhASEozp0z9F9erV0K1bd2zfvtNrdXP9elV+081G4KYXCNQ5lSwZjvDwEsjKNONcEnVUKvz9A1CqVJTojKnzpM7uel4WLQWPvF0V1R8tBfhpMEUYRL9tTXTqI/QsCWs+PoAjq22QVSNU2YwWYyoirn5prJi2FZXqlEf1VuEIDPVD0v50/NBvB2xnAuGSnQguI+O+NyohtlkIjP5G2C0OnPrTht+n7of5uArVKKNRtyg0fq48Dv99FrH1S8IYbMC+X88gpkY4oioGInF/Khb12w/HORIIJjw5uS6Or0jCwj67EKxGQlVpmsIzBqKRlIzIO1U8/m5dpByz4fvBmxGQEQ5FUyGHAA+8VQWV7g/Ghs+OYfe881BcCgxhEmo9E42GbWMQVMoo5niT9lmxfsp/SNhq1UVIkA0PDqmEak3L4PcvDqHqg5Eo3SBUiJPUPVas/Xg/4nc6RPdfs30o7u5RSUzZGCMUyJoE23kXNJcELQv4fdphHFiSDkUzCgNsMCh4883eeKvfm+jTtz8WLFiYa7qGUlSF25zayaBBA9GiRQsYDQYcPXoUO7bvwAsvdMKyZcvdAkEfATZu3BgDBw5E7dq1RPqZmWYsWPiDiGs4f/68Pt6UNPj5+aNVq5bo06cPoktFwaWqOH78P0yePBW//vqbMKZkfDs93xFvvNkbK35eiWHD3xfGmgz1+yOGofl992LC+I8wb/58DB0yGI+1fhRLlixBhw7PCWO9ePGPaNiwAapUrYp1a9eJkSIJCkqXvofXXnsdTz31pBAbJIy2bt2OD8aOw4GDB6GqGsqUKY3Z389CckoKFv2wCC907oTY2ApCYK/fsAGjR3+AEydOCK/c++8Px8MPP4KgoECEhYbAYrUhLS1diAOXS8XzHTvhwMFDXh2l0og+OsyJzm3rQNMUfDlvF9LN/m6Pij4tR1NNwQEutG1dFZ3b10JEqL8YNOw7lIrJM3di657z0B2KutEVo3WXDa88SwLhAcxbsgXDP94DpysADlkFRboYpUx8+H4bNK0b6PYKuJBpUfD60DXYd8QMTTaApuJ0P50DNSoFoe+r9dCoTikYFQXmTDuWrjuDL2dvw/lUPWamYowN878kD4IZT7w4D5m2YMSWNmD4wIdQqbQRc5cdwTfz98LqzPFcGQ0uPHh3eSQEyZkBAAAgAElEQVQnnsLWfQ44YcolBvX2nNvp0KXLyxg6dAhGjRyFr7+ZyXE019MAFJN33fQCgeqBos2NRgMsZgtsbiGgKDJiYmLEiDA+IUGMwq7fpcGKNNR8Jgxlbg+Hf4QJle+OEsZo/6p4aC5As6rYu/gckrfQqMQIp2TGY9MroNq9MTj/XyYCQgOQnkHTIxrSj5jx2/DjcJ4LhH85FW3H1EN4QyNOHExC6hkLwmMDUaFaJE79mokVI3fDmizjjv7RaPJKWZw9kInUJAsqN4kUo+ujW5IQWt4fpcuHY+37R7Fz/hlUbBWIJ6bUw6l1yVg1Zh+CtDDddak5oVkkpCba9BF6qRS0n9YQpcqH4btefyFtqyymR4IqAm2n14IpUsa87tuRut0IJQC4u2tZ3NatHM6eTcaZA2kwBRlQqV4EDEkBmNN/M1L3OKCFutB6XBVUfSAKqcfsSDyVAXOmFaWqhaBsXAmcWWfBknd3w3ZORtS9Kqq1KoWgaD9UvDNCxCAc+uMcnGYnVJuG/cvOImmz7BYIqphemDhxAlq2eASPPf4Edu7ck6uTFONo4WUaPuw9IQbIc0ArHEKCQ3BPs2ZiFLZ06TIhEBSDIkbXX3zxBSpXqYxNGzbh7LlzqFevLuIqV8acufMwatRoOOw0J66hffv2eOedIWLkvnHTJjidLtx/330wmfwwaNDbWLlylRCyPXp0x5Chg7Hkx6Xo22+AmBoLCgrCxxMnoEXLR/Duu8Px9dffYsL4MXihUyf8/fdmYewpiDItLQMbN25A3Xr1ULJkSXR9uRs2btyI0JBQjB4zCo8+2go7duzC/n37EVspFs3uboZNf/6Ffm/1R0J8AsqWK4NVq34SYvq/4/9h2/btQrjceeedqFC+PL6dORPvvTdceBpIaNSpUwe1atVCs7vvwuEjR4X7WngkVA2ff/EF4s/E6wKhKCNuc320YixNgYISiX0NDo2MpxGaRJNTEK7+YKMDvbs2wfNPVkBi/Ens2XEGYSX90bhxZZw8Z8LgceuxY19qAQWCBllzwSClo88rDVGnou7ra1i/DGQlBM/3+wXb99mgSabsdQ3R4VZMHN4at9X0x7ZtB5EQn4HKcRGIq14dP/5yBh988gcsdhmVSjuFQMjMyMLTXeYiOjoSQ/o+jPrVjVjy8w588sUOpFhKwJWHJcXsOEQeVBLBNHuR/e95BQL1GzVr1sTSpUvwy+rVeO31N9mDcP0MQLF5k08IhNy14fleqCOOji4FWZZw+nQ8HA7H9as0EVCkQjO4oJqcKFFbxbPTmsDlVPHVY38DWTSXTz0auTcNUGCCQ8lA6+kVUP3+GKQmmrHyw/2I35aqByepCuQzAaBpi0Ydy+DeoRVx6J+zWDliLxyJfvAv78KTY+siqlwwVg87gP0r03FP33K449VyWDfpCPb8dgovTrkLFrsD817bgrh7SqLlgNrYPvcM1o07gYoP+QmBgEwNrgQNsmoQIytZk3F2nxlzhv4NgzUILoMNdbuH44He1bD1yzP4fdJxGNVAVGwVikfHVMbhzQn46a2jUDJKIKy2A89Nvg1yCRvmvbUNSf84YQzU0LhnadzZMQ7bZiXi949PAP4qHh0XJzwHm2cdw6ZPT0LL9EPk7Qa0G18PktOARX12InmLBE1R4TI5ENFYQruP6sGZKmHeq1thjafRmwGSndal6dM1ZKjCwkIxc+bXiKtUCa0efRSnTp3J40EggUCegLlz58JqtaB791exezeJCAlvDx6I7t1fwdIly9CzZy8YjUa888476NLlJcya+T+MHTtezL9HRkXhu+9niemJbq90x4b1f8BoULBo0Q+oU6e2ePa339aKzrlt26cxfPgwIUJ69nxNjMB79nwVQ4YMwpIly3SB4HIKwesRNu++O0KM/iaMG43nnnsW3bv3EF6CmTO/xaFDh9Cr12vo3PkFdH+1Owb0H4gff/wRbdq0wUcTP8TWLVvx5pt9EB+fiOCgYBFTcXezuzBo0FAs/OEHVChfDitX/QSDouDtt4di2fKfsr0k337zFRISEvH4408gIzNn6oJEygcfjMaPS5ahX78BsNtIEOkBjN6MhXCH7YlIA1q5QlMMFGNABhyyASLAVVJxR90SmDCiOWBPxpAx64QB91ey0P/VBnj6yaaY/v1ufPzlLkDS5+6v5EGgKQbyINB/ASYHDLIVwX4ufP5ha8SVj0SnfiuxfZ9dTOnR9Ablre+LNfF6p1r46ded+GDaNqSbjYguYcXU0a0RV70eOvb6H7bvS0NcjKoLhPQsdB+4BIP6PIHmjf2x4tf9GD31X5xLCxbBxqpYgpwTi0BeMz3f+trMnLDMvAJB96yWxIoVP+Ns4lm0e+Y54UnhiwkUJQGfEgg0nUAuUEUxIDg4SEwvpKWmIi09/QaoZz1oSpMdCKvvQPvpTeB0qfjq4W2QLf7ulQLkFiXnvQyHbEbrGeVRs3k5rJi4C9u+SYLBHgBZROuRsVZgCFHx8OiKqNo6Er+NPYBd3yZDdvrDZrSjbpcQtOpXF7uXJmLVyIO4u1d5NH0lFmvGHsau1cfx0ox7hfGZ020LYu8Jw2Mj6mHHj6fxx/snUe5BPzw5pR4ykmyI35OWHcAo3PxHzPh94gn4WUJAAYuht1vx5IT6MGUG4NtXNsN+TsXDYyqj5sMxmDP4L5xbq0JxGVG5vQkthtTG+QNZWPfJMSjmQNGBl2qqoNkblfDf2jQsH3xArFZoOaEiatwfjSVv78aBRZlQXCYYy9rR6bNGCCwtY1GfPUjcSNMcCpxwoGQjF56Z1gCudBmzX9wGxxk/fe5X+ARygtViYkph5sxvhCfgicefRNL55DwCQQQjPv0UJk+eJJaDdX+1B+x2hxgVt2v7NCZ9/DF+cscgREZGYOWqFQgICESnTp2xY/t2zz63GDnyfbz4YmdMnTYd48aOFW76VatW4vjxY2jX9llYLBYRn0Dz+A8/9BAyMzOxZs1vyDKbdQ/CkLexZMlS9Ov3lphiIIHw0UcfomXLFnj33ffxzdczMW78aDz77DPo2vVlsYJg9uzZOHDgIF7t/iqe79QRffv1xYD+A7B8+U8YP34c2rZtix8W/oD5CxaI8qguF+5t3hxvvNEbM2Z8gfffH4WKFStg5crlsNpswvuwa9cu4Q2gKPg1a34VeW7ZopWYOtFjKlS89FJnjPlgNBYvpvz2h9VtdC670qIoeyN3WnlXzLgDEkUQogPtHy2D996si41b49FnxL+wWIMAzYGq5VXc1bgMDh5NxcbtVmjuufv8phjk7PZEdzoREmDDrI9boEpsODr3XY0d5EEQK39cCPLX8PWEFqhV2YTXhq7GH9sscMIPJtmMuxuGoEpsJH7ddAonE4FK0Srmf9EBLnsGtu08j4eax2L/kbN4fegvwtOhkuDNDr3MG6x4aaQXCgSIqaplS5e4PUBtkZpG/SBfTKDoCPiUQKBphpjoaBiMNN8vi9FN0vnzsNL0gpfcnpdH7TZUsgOhQiDcITr/L90CQV/e5xYIkgyHlIXWM2JR857yWDDkbxz/0QmjizoJV7ab0RQOPDKpPOLuKoUlfXfgv5+dkFQDXLIDpR5R8cLHd+Lov0lY9uZeNOlOAqEifht7CDtWHUeXz5oL9/Wcbv8i9p4SeOz9urpAGHkK5e434cmp9XD0lyQsfW8nDGogZDIqwsuhCENsUP0BWYIzPA2PDI9D7QfKYEm//Ug8kIbnv26E1LMZmNd7J4zJIXDJdjTtVwpNulWE7AC0VBrq0FSKBtXfCbmEhITNZvw4cA8cWSpajY8TnpMlg3fj0OIsGFxGKKXt6PTF7Qgoo2FRn91I2EgBcAbQKgYSCM9+2gDONBmzX9oGx2n/7JURuQVC2bKlRYAijf6favM0zp9PySUUReHQ49VXMWzYu5g9Zy4GDhwkpgLIAF0oEGJjY/HH+nWIj0/A8893wvFjx/WqlyDm+t96qy8WLlyEQYMGiY1qvp/9PTZv3owXOnUW6XlW0tCUhnDLa/QLeLUHeRAGi9gCMrjZAmHih2jZwiMQZmH8+FF4Jh+BMHjQ21ixYgVmzJiO+x+4D+YsM6y2nKk14hAUFIxFP/yI3q+/gQqxboFgtaFr1xyBQMGXf/zxO2iaroVHIFBgrKbhxdwC4a0BIqDxctf1FA1UEQbZgR4da6H3S7FYsuoohny0H6rqLwJpoTog4kw1irnVv7v8PAgUg5AjEOgJEghWt0Aogc59f8kWCJRaeIgL82a0QUSwA51e/xF7Txj0OAE4IMsqjEJH0J0GxEbbMP+LdigRbBHC26D4Yc8xoNc7y3H8DI30KZjy0quX8hMInlXKtLJr+fKlos6feKKNCHDliwkUJQGfEgjkcKMOmHb9o1EQRYc7nQ7RqVPHf32vwgmEWs3KY8FQEgg2KC4/fRThPjjJWELDwx+VQ9XmZbBq6F4cWJgFSTXCJdkQ+7QB7Ubejn1/nMaqQYfRpEcF4UHQBcJ/6DKjOVwuJ2aTQGgWhsdG6gJhvUcgTKmHIz+fxw99diJIi4JErltaniBT9HhOZLzTYEflp/zRZkw9bJmVgNTTWbi/b2WsnbEPO6fYYJQkOIw2NHw9DHf3rIzj21KwY9lpqC7dUSp+yRLMCVYk/2OFphjxKAmE+2Kw5O09OLwoCwZVgVLagY6f3YHAci4hEOKFB4Ei1h0IJ4EwrQGcuTwI5IehK7dAKFUqUngQIkqWFDEIZ88m5REItOzy+ec7YtzYD7Bk6VL06dNPBLNmexAmfawvc+zRE6VLlxajappW6Nz5Rezbu09fGSNJGDCgP15//TV8880sDB82DNWqV8XPPy/Hzp278Fz7DkKYCYEgAQbFAJW8QmSzNBVdu3YVgWQ//bRcvD9fgfDyy0hOubQH4e3Bb+On5T9j2rQpeOjhh/D97Dn49Zdfc63g0dflJyaeFXmjKYYV5EFwC4SdO3dmB/hu2PC78MDlFgiU6Rc66x4EmhJ5481++UzdeX/5Y843LYnYhC5t4zCgR02s/D0B/cdsg8O9AREkBVBkERirqQ59tYi+K4E7SLGcexXDFgyftAdOpx6kWBCBQHuHUFrB/nZ8N6UVYkv7o0u/n7D1gAsuIRCcIqBVVgzQqB9SNcRGWzDv83YID7Vix97zMBlk1KwajQUrkjFq6u/ItFEMkHsfkwJtRpXjQfAIBPKmLl++XLS/Nm3aiSXffDGBoiTgEwLB4xzwuB7pAyGhEBMTDT8/E86dS0JGRqZXI6wvhq5v0kobqITWt+keBFV1exAC3FMMHtehAqeUhcdmxKIWeRCG/iMEgqz5iY2OsvcR8Hfhjrci0OTlStg1JwG/jz0NVwaghLnQYkQcKj8cgT9mHMK2r87h7jdjcUfXClg7/jB2rP4PL09vDofLgdndtqJis1A8Th6EJXk9CId/PoeFfXfA36GvyaZRv76vAvWttF8DLcDQYKpowXOfNYDLJsGZoSEkVsHivjuQvjnALWiAqFZ2PDmyPqyJMub3+Rdph53ieaO/hMpVKuLkf/FwZMhwUZDiBIq9iMbSwXtwaLFZTFGYyljR4bM7EFBWFwgJG+l5io1QEVLPgWc/rS8EFE2ZpB7S16srYj+JnKhviuT//LPpaNCgPh5p0QpHjx7Ps0kTtZc7mtyO72f/D8ePH8dLL3XB6dNnhEF9rVdPvD1kMJYt1Vcx0LJZMTK//36MGDES3377rbiP3LjffP01mt7ZFP37D8TCBQvECoLly5cJkdqhQ0fs3bNPzBk3aNAAL3d5CadPn8a0T6eLpY3t2z+L0aNHY9PGDejRs5foxKOiIjF16mTccUdTvOeOQRg/bow+xfBy11wC4YCYYujYqSP69euLQYMGY9GixejXrx96935NBELSz2hKggRJQGAAKsZWwqHDh6G6VJSjGIQVNMVgxcsvvwISCLSHPwUtrhcCQUKLFo/qUwzujajElMyUT7B27Tp06/aqCP71bEakb1+d4w4nDwR9hy6nC05aBuo1L557eSlcaHVXGMYOvQPHTqt4Y9h6nDhjFUseH7ynElq1bIANmw5g4fL9Yq8RSaXNjcil4EDX5yri7dfvx/zFWzBs0nY4VX+oFNvgmedXKQTSjuAAO2Z90lKfYuizEtv3Zur3yQpoomt0/5p4okU1fPL1IXw5bw9sLgWBBie6dLoTVWuUw2dfrMGhIxZUjLZh7lft4XCko/PrixETEYiPht0PY0BJTPhyB+Yu3SW8HxSH4Nk35MJtoC7X5+ieEU2IWopBOHToIDp06ASn8/rvB1OUxojTuvkI+IRAKBleAkaTCampaWKERxdt2FMquhQCAvxviEDwbHfikpwIq2/NIxAkS4C+w6Hn0hQ45Cw89lkFIRAWDiGB4ISi+QmD6NnUiKYSwho50WFGIyhOA3Z8dwYnt2eiYtMgNHi+LM4mZGBJvz0wH5Zw11vl0aRLOaydcAS7fvkPL81oLkZ7s7ttQ8V7goVA2PljPP4YeVJMMTwxrR7O78rAtjmnYRSjLs8lwZah4cCaVChOP+H2tBvTcXufKDTrUkW4bI/9lYSVgw4D50P09egqoJZNQYtR1VC1WQzi16dj5+KzMKeoqHxnKBq3qIU/vt+Dv78/BQRoaDUhFtUfiMGywXuwf7EVimqEf2kLOs64HQHlVBGDkLDRAUWsI5dhiLWg3ZS6YjfFvQvicfj3dJgMCrLOOnFyR5YuFACxFHDk+8PRoUN7dOjYCevXb8xjpMgYUruZOfMrEZlPRo+C90hY9urZC9ExpcTqAjLcZCiaNGmCr776Uhi86dOn4/h//6Fly5Z46sknsGPnTrz00stIS0sT76C4gu6vdMPmv//GzJmzhGeCgh5vv/12fDptOiZ+/LGoD1o2+cXnM8RGX1OmTsPBgwfR4pGH0bbd0+7AyOHCMzFh3AdCILzcpRtSUsmD8D0OHNjvFgjPixgEWh2xYMECVI6Lw8xZ36J06RisXLkaixYtEkb8sdat0ahRY7Gcct2631GuXDmsEh4Et0DYtVt4EAL8/bFhwzrhQXiEBELSeRGESAxI5CxYMEd8ZzOmf459+/YjvGQ49uzZg7179+fh++CD96N792749Zc1mPapXkbvXhpKBVvwycj70KBOGaz44yyWrNyL0lHBeKVjPUSGOzHio434YU26WAlQrVI4bq9fVhj+OxuGokXzitiy8xSWrzsHVQvEzn1nsHM/BQo78dC91VAmEjAZnHjxmTiUigjEzIXHcDLBhnSbESt/2wubWUbjqmZMmfAEFEMYvpizF/sPnUXT28qj41MVcDIxHT0HLEfC+RBUcG+UlJJGqxjmwWk34PEHw/DugIeQYQ1E/5Er8ee2NCHSc29KVlATr2ku3HFHE8yZ8z2+++57DBv2/g2Iw/JubXPqN57AzS8QaPvXyAgRsU6jL9rwhdZl+5lMiIyKFPOoCQln9UAxr41gLq4ofYNWmh5QEVrHgraf3C5GUbOe3AnZEphnO2OxoZBkRstPyqPGXeWwePi/OPkTGUQ/MX9KEdqeUYHTPxNxLYJxV/c4RMWEQ3b5wWUwI/VcJn7/9DBOrrJAUf1w2+uRaNy5HH6feBR71p5A58nNYHfYMe/1XYhtGoyW79TB3p/PYMMHp1CuuR9aTawDxSXBaCevhZw9EKTOKfmIHbO6/ANYaN01+WWd8KubifaTm8Av3IA1o/bi8BIzDI6gnJAugwVh9Vxo1rsSytUpCX8lFJKDuuIsnD+RjrUTjyDxbxVSkB2PjKyIqvdGY+XwvTi4zAKjKxDGGCvaTa6PgDIqlg7eh7N/OkFRDDSicgZYUP+FCDR6uTxCAgNhsPpDcsrY8uN/+HXiAZictG2tvp30Cy88jzFj3sfYDybg0+mfXbSrJhnOBg3qYeT7I1CzZnUxZWAxm4Xhq1GjBn5dswZ9+/YTgV40GqZgRAoUpAhxSp/a2u7du8QSx+3bd2SHutB2xBSPcF/ze2Hyo1UrmtjIaNWq1Rg1agwyMjJEHmlJ48CBA/D0008jMDBABBPS6gSb3YZq1aph9Oix+N//5mDkiGEioJJ2gyQR8uWXn+Hw4cN4840+aN+hPXr07Ilhw4Zj8eLFIg+3394EgwYOEMsSjSaD8Bg4HHas37AJY8aMw4kTJ8UW1IsXLRRBitm7TGoa/AMCsGLFcrEZU5un24m5a892wcThnaFDRF4Cg4LEz+kArKlTpmHqtE/z7DjZocOzImBy5szvMGDAQCHYvHfRdkm0N4Yd9aoAA3rdido1YiBJQZA02lU1CT+sOIQv5xxEiiUARtmJZx6tgcG9H4BBs0LW0gE1SyxZ1ORwWreAad+uxozZR2CQHJg+viPubBAophxkNQUSxegoJaDBhBPnDHjxje+QlKzBT0pH+ydi0aVDbUSUjIFTM0FSrTh87BQ+nPYn/t1rh0sKRGwpK2ZNeQbpmRY81+MHZDoCYUIa3nnjNjzeoir2HTNi8Og1OBFvK5RAoOmzt98ehJde7Iz+AwZi6VJaoVKQYEfv1RCnfOsRuOkFAnXwNI1AOynS7xRrQHNuokOXZaSmpQnPgmf64fpVkXtnM/omS1hR5q5AuJxOnFnjhOKkU9xyuxAo/MmGqLtUhJYKwqltqXCcCHRvvpL3s6Z5a9XkQGgNDaXq+yMwwgRzkh2JW7OQdcQAyalvHBNS24bwyn44t8eM9HgbYpuGi53ozmy0w78UEN0gEOknzEjdocA/xoWYu/11SZPrHAadlQR7KpD4uyaMsCpJUFTA6Z+FmLtNMAUrOLk+C0ihA6coCkx3M0twQFMcMEYBJRsoCI8LhObSkHLcgpTdDtjjDQBtEOVnQdRtMoKj/XD2XzPMpyggMgCOgCyUbRoAQ4iEM/9a4Uqk5aC6QHDRaDbUhhL1JUTVDILRn7wHNiRsNcNy2CT2QdAvDXFxcfhh4Xzs3LULfd7sh5RUWgN/8VW5ciUxFUHztseOHRfGt2bNGsI4kuvdc1GgH60vr1GjOgIDAsVOitt3bBNTEzT69nTBxJJiYGg/fJrrp9URR48dFcKDVjF48ke4Q0JCcNttdF8FZJmzsHXrViEcyEW8f/9BnDhxCnVr1xL7MNAJfWTob2vUEFmZmdi2fQfKVyiPSnGVsGfPXrEDor4boyQ8CHVq10HpsmVgtVjE1AaN8lNS9OWzlH8aZVJb3Lp1m5iGo5/TfDntQEnXpk1/irzrAYd6e6BVIfXq1QcxI+GTIGIadoplkbkvWsL5zjuDMXXqdIwcORoGw6W2BS6qL5KIix0CRGBvmQgnbq8ZhPLRAUjJcODAf1nYc8wKi92kL5GUXKgUo6BelTCxAkGS3TuHkiCndiYZsOdoCg6epL85cGfdkogJU8VKHLH9stivXH8m3SJj4/ZkZDn9RHBvoMmOqnESaseFIsjfgMRzDuw8nIn/ztGr/MQS6BBjJu65rSysLhV/bEmGQ9V30CxTUkP9GkHk/8L2g2acOesQ0xeeqyAeBKr76OgofPvt18KTSstvqQ2xQCiqtsbpeAjc9ALBk1Fay01zvjQnTHOndpsdmVlZYg/yG3fpIoCmCZxicxcJBooruISSJ8Pvontovh/6zmyX+qA9BlyVXHDJFORHLn0ZRpe/OMtAnAVPu9tJDtA9wt2uSeLPIohTM4n80LvoHWJeX1LFSojLXbS8kNz+efOt6WXSNPFvnuOTc51h6U5OgqrY4ZJtIthRUU0ixkCcv+A+VlrkjcpNexi4t5YlzwulT7sXS6D4h1wR3WSIJQmq7IRToY1qNEguyqOfWDKamxvd16tXD+HqphgB2sXwIhGUfehRjmgTh2dRhgs46Mq79O7S5ygV/Gwlz54CukHWD+vKPpFLcHX/JHuOXGTVndfcB395Uso28BT4ln1KR+7DzXIfFqa3Wv22ywG4+GwI/bwG/VnyrHz66RQ88sjD6N27D1avXu1VA6X72ETUj+c8UiiaXRh3l9jNwCQ2VNLP/vAYd7Lxnu2h9YBKz64D+i6iJCTo+6GgUopzEbswXLCXhnsvBdrimfwLIn1qxhSzYHUfRkbfnFEsh/TEa9AqJnq3OCVU0gNX9cBJ+rnTHUBJpVIg5TqavCACgbymdJbI6NHvY8qUaZg+47MbEKR943pdfvP1I+AzAkF0D9l9md7Z+dKVY2A8HV0+uc8+BTHnZMbClffaIs2FoXKfQpnbrF0pL5da/qYb9pwTOcXhVe4Njy5Mi9y7VNn6Mbu5N4u5+K30LtoTY+JHExBXOQ6DBw/Fli1bC4fqap4quBq4TKq5DfDFt+Q9FujyDDyHYmanIHaCvuDI06spVwHupe+wVKlSWDB/nvDE0KFO5Gnx5hRfPued5vHX5faGFKA4BbpF3+VRP7BMtOM8mxhdol26/Wxup0z2DSQRsrsxodH0Tb88V34Cgd7f6LaGGDNmlAhGfeed98SGXHwxAW8Q8CmB4A0AnOaVCRTUUOXH0SMQROfq/u9yz1zNO6nDpF9VqsThvXffxd9//41p06bnGZXll7eb8d8LyuCSAsHLBSJ7RvEGNG1CSyqPHjnqHtcX0B1TiPxdjUAoRPL5PuJZwltQQ365BC9M58L78hMItEz29dd6onad2hg16gNxQJivDZbyhc033DQEWCDcNFVxc2Ykd4eW32j+SiXQR06ezWt0iZBfJ3o176NOskSJMBFER8v2PFMiNyfV/HNVUO6CYi67nGf1TP6vuaY7PJtB0ZRfgedqCvnGy73hatpIIV+d/ZgnD9f6zmspC8XB0DJb+t0TU+JNz821MuPnfZsACwTfrj/OPRNgAkyACTABrxBggeAVrJwoE2ACTIAJMAHfJsACwbfrj3PPBJgAE2ACTMArBFggeAUrJ8oEmAATYAJMwLcJsEDw7frj3DMBJsAEmAAT8AoBFghewcqJMgEmwASYABPwbQIsEHy7/jj3TIAJMAEmwAS8QoAFglewcqJMgBeatCsAACAASURBVAkwASbABHybAAsE364/zj0TYAJMgAkwAa8QYIHgFaycKBNgAkyACTAB3ybAAsG3649zzwSYABNgAkzAKwRYIHgFKyfKBJgAE2ACTMC3CbBA8O3649wzASbABJgAE/AKARYIXsHKiTIBJsAEmAAT8G0CLBB8u/4490yACTABJsAEvEKABYJXsHKiTIAJMAEmwAR8mwALBN+uP849E2ACTIAJMAGvEGCB4BWsnCgTYAJMgAkwAd8mwALBt+uPc88EmAATYAJMwCsEWCB4BSsnygSYABNgAkzAtwmwQPDt+uPcMwEmwASYABPwCgEWCF7ByokyASbABJgAE/BtAiwQfLv+OPdMgAkwASbABLxCgAWCV7ByokyACTABJsAEfJsACwTfrj/OPRNgAkyACTABrxBggeAVrJwoE2ACTIAJMAHfJsACwbfrj3PPBJgAE2ACTMArBFggeAUrJ8oEmAATYAJMwLcJ5BEIBmMKAMm3S8S5ZwJMgAkwASbABK6ZwAUCIfWaE+QEmAATYAJMgAkwAd8ncNEUg+8XiUvABJgAE2ACTIAJXCuBPAJBkpOgaZp7mkGDJEnZf5cuOfPA0xHXWgH8PBPQCdB3R78KcuX33eX37wV5B9/DBJhAcSeQRyD0H/BCATsp6oC4EyrujYfLX5QErkYgXOm9clFmitNiAkygGBPIIxAOH14Pg8FQANvPAqEYtxkuulcIqAUU5/TyK4lz/ja9Uj2cKBMohgTyCIRDh/+A0WgqIAb2IBQQFN/GBApAQIMEEgn5Xxry8xLwt5k/Rb6DCTCB/AjkFQiH/oDBaBSxB3wxASZwPQlczRQDewmuZ83wu5hAcSVwkQfBYDAWVxZcbibABJgAE2ACTMBN4AKB4I5BYDxMgAkwASbABJhAsSbAAqFYVz8XngkwASbABJjApQmwQOCWwQSYABNgAkyACVxEgAUCNwomwASYABNgAkyABQK3ASbABJgAE2ACTCB/AuxByJ8R38EEmAATYAJMoNgRYIFQ7KqcC8wEmAATYAJMIH8CLBDyZ8R3MAEmwASYABModgRYIBS7KucCMwEmwASYABPIn0AegbDpz8VQFCX/p/gOJsAEmAATYAJM4JYmkEcgmPzS3Ocw8FkMt3Stc+GYABNgAkyACeRDII9AMBhTGRgTYAJMgAkwASbABMACgRsBE2ACTIAJMAEmcBGBPAJBMaTwUc/cSJgAE2ACTIAJMIG8HgQWCNwimAATYAJMgAkwASLAHgRuB0yACTABJsAEmABPMXAbYAJMgAkwASbABPInwB6E/BnxHUyACTABJsAEih0BFgjFrsq5wEyACTABJsAE8ifAAiF/RnwHE2ACTIAJMIFiR4AFQrGrci4wE2ACTIAJMIH8CbBAyJ8R38EEmAATYAJMoNgRYIFQ7KqcC8wEmAATYAJMIH8CLBDyZ8R3MAEmwASYABModgRYIBS7KucCMwEmwASYABPInwALhPwZ8R1MgAkwASbABIodARYIxa7KucBMgAkwASbABPInwAIhf0Z8BxNgAkyACTCBYkeABUKxq3IuMBNgAkyACTCB/AmwQMifEd/BBJgAE2ACTKDYEWCBUOyqnAvMBJgAE2ACTCB/AiwQ8mfEdzABJsAEmAATKHYEWCAUuyrnAjMBJsAEmAATyJ8AC4T8GfEdTIAJMAEmwASKHQEWCMWuyrnATIAJMAEmwATyJ8ACIX9GfAcTYAJMgAkwgWJHgAVCsatyLjATYAJMgAkwgfwJsEDInxHfwQSYABNgAkyg2BFggeDVKtfcqUtefcvNnPiNIEC0Pe+9mM2FOaK/0y85+1ZPbV2chv4TDfod2e+RNEha8a3jm7n9cd6YABMoPAEWCIVmp7pNxKUMg8fokBHRoAnjU/wMiLCZhEICJGFbc4yz+FP2zwtdCRc96H7dFRL05MFzZ65MZj+VIw30+pOgSVKuMuh1qZeB2gGVz1O/xa+ei672OCUmwARuJgIsEApdGxcKhMuNTIuv4ZAktxHNFgfuEbgku42tDl/cd/khv26MNQ0S3Xgl00/GWpPzkWKeevP4AC6V4KXqMufdnn8l2UfygbSBJApA91xaMEqSLMrAFxNgAkzAVwiwQCh0TV04AnXBpTlhhAmqZHCn6nT/fqHR8Li0LzYY+nhWEp4HfZSq/5n+c5vTQuf4yg/mzsvVjIIv/5yiAioZf8kFCa5sNeAigeDyqAe3u14m0+opdU5OQ4KDUatWTfz77xY4XR6eZIcvFAIaXGKUb4ACFzSoQoSQTfYYbxIYquCoCJcG/Zl+IijTfW7eqiKJ5xRVgSpJMNA9mgr6j/LokD1TChIUd/HJS0RlpXd76k3IIw3w8/fHHU1ux7at25CVlen5sS4shBvlanh7qfo5WSbABJjABQRYIBSySVDHLtzm4n8uKP4qYmoHIyvNjvPHNEhue6iPU/X/9IsMkgvQjLohkXST5blkjYyqEbJmA5lAFxkzMmWSE5L4iT5XnjOJkSMbcpsZ3fF9uSv3SNdtIClfwkKSkc6Zj8+dgv6U59/IwJLB9DxHeco9laJBVhXIsobqd8XgrpYNIRkUIRZUDTj41wmsX74DqsMAmZ7M9aiHiJ+fHwYO6I+77rwTnTq9gPPnkwUvfW6CiNKTVA+6ETdIBjg1F1S3J0GM78nQC4+FggC/EEQEhUC12XDWkgQzHJA1VcgJmTwUGskwBf5yCEqGlISfwYR0cxIynWbYNSc0FwkdqhMnJEmBrBoQqgSjZIkIOFUNKWkJsGo2uCgdiQqkQtNUVKhQHrNnf49Fi37A9OnTYbPacrwNVA5JF0bsXyjkx8iPMQEm4BUCPisQZHfHqqoq1AK4n4uaniRc2WSoHKJjj70vFE+OqIukI2bMH7odjvgcc51XINDdNCI1uQWCPtr1mHlZk+GSVBiD/9/eecdnUeX7/z0zT00njRKaNDF0qSJ21yuuggWFFQVEdBULi7qwoKigBsWCbdkriw07hqwNlRVQVIRVEZfeWwKB9J6nzcx9nTNPgChu+N2fL4Sb8/yVvDLPzJz3mcz5nG+NENvETajWpqbYURtiIazbN/8WAkHcg7i/OqFjieC8XxQIjhByaQbtR/g555b22B4bd7yOx+di9eu5LH90N66aeCdMQeyio8jkfOo6Y8aM5s7bx/PsM88xf/5riLmWi674hmbgxkWs109aXHO6tTmNpCYJvLkkhxqq0HQN3TbQLJNYdxznZg7inB4DSfElyLCBHQW7eO9fi9lUsIWwnElhcbBol9KWof2HcmpGB4R0KTcDrFi/gqVrl1MeKMfSIpiaTaIrjnM79eWC7heSHJ8qRcb2glw+WfUJ6ws3S2uHtGJg43a5uOGG0dx2+6088shMchbmYJpHCB1p2VAfRUARUAROLAInoUCwMQwXqakpGIZBRUUFlZVVDfqnf23sh20CptzdJ/W1OfvuDpTsqOarp/dAQfyhSx5dIAgLggh+EwuJs3c8ZGPQLDpdnMKgsZ3Y/UMBnz+zHrvWJc3nenSXfqwC4egR/UezIEhb/E8sCE68vryW2Irbzq7d2e8Kq4bjg5e7f2lNF352MZLoiLQIOgZGixriW7nRXQbdLm9O9yubs+atPL54JBdPdUxUG0kfg7yOkAD9+vVl7twXWLZ0GdMfmE5VdbU8TogHsStvGteMMzqcTpeMTnRK60wTXyJbi7eSlf0UJbZYyIUtwMBjw+DuFzGy73BqysvYuncrcXEJdD8lk+3lB5i9+GnyKoqIaCZJ7gTuHnwbPdMz2bhnC0XlRZzaohPxqcksWreIBd/mELLD0jLyu87nMPasqwnU2GzYvRvN0OjZKZOScBHPfvp3thRui1qLHPETHx/P0888SWZmJjeOvZGNGzfXi7uQckGCVB9FQBFQBE4MAiehQID0tFTiE+IkwaKiYsrLK457loCwIAhzd0gLSP90xFuLnhDGCoFRGY/Xij00wzYmpnARWGKB9WARQHjThenbgxtNeK41G9syiRgBMAy6jkjgd1M7smt5ITmTN2FVeXBZOh7bI48Xi7D05QtjhNjVGiFs08ZteeWuXZrppZnbccSLxTyoBdE1A5cpfOvi+yEs3ZTCw2W7sfWINNELneDGK8WIs+AbRAhi22F5nC7dIya6BmEjQkSzEEF4lmXjFRYG2xVNXhByQvjmhQVEQ/fo9Lk5lQEThUDYx+dZ+3BXeR1xpDu2ESEtfH4f06c/wLCrrmL06LF8/dXXURHhSBNhxbik20XcePY12EGD4oIiWqQ3Z3OZEAizKLarnHNaGqnuJjx07b0kk8jzOX9lbdk29JDOHy+8noHdz+CdlQt5Y80H4DI4q3VfJvzXLWzevYnZ780l6KqhjbspU679M7bfZMqCLPZX5+MJGtw/dDK9MjJ5btFclu/5EcvWuL7f5Vza/wIWb/+SFz5/BdMWdgUnikQ3dIYMvZQnn3yCl19+hZlZjxEOh537jLoYHKWlPoqAIqAInBgETjqBEBsbQ3pamlz7hFW6uLiYsjIhEI7vy1X4q2PamZwx5hRiksQC7/jvy3cG+ebVXVhlzsInPp7UAANvaofm1di6rJhOZ6fRrEMKodogud+VsP69AulG0LwRuo1Io3WfJsS0cZHW1U/twRAH1tVCyCBcabLibzup3WtIk3hED5PUPpbMS1Np0yMVXXdRnFfM7mXl7PimFLvGFU3D04hpC/1Ht0GL6Kz9bA8dBqbSukdzvC4367/czbcv5ZGa6WPAqA6U5VazfO42/LVxmGJx94XpdXVbmvXwsfXTYnYsrUCzLBJbumk/OIaM7s2Ia5JAdWU1+9YUsmlRKTV5lgzaE8JBLv22huUO0+cWIRBa8uNb+1g2cz+uKiF4nOOcbAablhnNeeXVlxFupKuvHkFpSZnk6NglRGyDTre2PeiU2JZtu3aQRBx3XH0ruyp2kZX9JCVWBbasTaDTPbkzD1w9mbyCvcz4xyyKjUpcYR8XthvEzb8bzcZ9m5jx8dMytHD8eaO55NQLeHbZ3/lkyxfYukWc5WPapRPp2KYDz388jy92raClO51H/jANIhEm5TxCbqQQn+XmrDYDuPO8seyo2EvWotmUBUvq5TS0atOKdxa8TWlpKTeN+yN5efvqskCd8SmBcGK8FdVdKAKKgLN5SUnpcSg2ynCVHndT/bHOg1g4hEuhadN0XC4XkUiIGL+f4pLfSCBgEdsjwEUPZBLT1IXLoxPfxEvh2moW3raOcP5hC4KnVRXD5/UktrWX6t0RQnpEBtIlZ/hxhd2s+utevn8xH8MD3ccn0+78NPzJHuJb+AhVRCjfVysXzmB5hGUP7CC42SOD/fwtQwzN6k9Sb4PSkioitSYpGTHYBS6WPrqJrYsrcds+mcOf1Nti6FOZeONcVB4Mktjai6mbuHDxw4JcVjyUh6tliGv/3pc4Xwwv3fgN4Z1+MC18zU2u/GsXEtv5WXDbjxxYCTFxHv5rWkfaDvZSeLCS8oMBmrSKpUlCLMXLbT6cvpbqkujuOSoQTFeIvremRQXCfpbN3PczgSDiDPr378tLL87l8y+WM2HCXdgREQgpgvnE02LK2AJ0Q4ZymCb0TuzKvSPuYWeZEAhPUGJVYukWhm1wZss+TPr9bazLW8+jHz1LuStI6+SO3DzoD/RO78S24t1My36UiGXyl6ET6du8J9M/fYxv8lYTSwzndR3E9T2GkBybxrwv3iJ7/QecFteBGSOnUFKxn8k5j1BiVZGR0JQbBozkjJb9ya0+yEPvzyK/Nq9ezIju0nj99ddkVsYtt9zGqpX/klaXuiQGJRCO9W2gjlMEFIHjQeCkEQgCRlJiIk2SkygoKMTv95KYmPCbWRDEAh/21eBNN9E90LpPEoOndqZ0e4Ds8euJ/EQgXD2vJwmn+PjXvJ2sfitP7hx7XtOC827pRO7KKt7/00asMjdhfzm236LHsAzOntCBnSuK+HTGRqzaaCxAmRd3yI8RW8tFd3Wm04hU1izew9dzdkuB0P7CFAZPyKRoXQVv3rQJd9CHZRgkn24zdHYm8Rke9q8rY3VOLmV7avD6XVTmhaha5ybiqmHgpAzOuK4dK57axfev5uMO+0g/x8eQJztTsL2MnFvXY5Qm4T81zOD7TsN2B1iUtYWKPSES2ri5LKsrp5ySwcJ7VrN9cY0TKBjNNPiZQMjaj6tauFgOWxCEQLjiiiE88cTjPPbYLOa+MM9ZZKMCQcY8SL+HyGAwEHGLvRK7cd+Iu9lVuouZdQJBBHpicGbr/kwa/Ed+yF3HM4tfoUObTlwzYAhpWgIpMQnsKN/LvQuyiFgWf7niLnqnd+ehT2axrTSXK0+/hEGdBxAXdBETE8dLXy4ge+37dInvwIzrpnCwbD/Tc56gTUZbRp59FelaGsmeRHZX7+fhDx4nr2b/EYmbIvvBZNr99zF61PVMnXIf2dk59WojKIFwPF556hqKgCJwrAROGoHg9/tl7EFtbS2FRcWkpDQhMSHREQjl5cc9BqGu3K5M29PCtDrXw1VPd6F4Ry3Z49dh5vsPzYG7VS3D5vUkPsPLOzesofR7Z7FI7A23zj+b/XtLWHjTJkK5XmzCRHSTbiMTOH9qB7YvK2DRpB24q+KlyduM2nuSOpsMf7EXET3Esie2UfajkxVBbAUXP9iR5NYJvDR8NdU7RE0GndTeNpfP7kJMooucSf8m9/MaMEW8gPirgWF5MC2LtHNNLn+0G6GdGm9O+J5wkc2gv7Shz4jWvJe1mt05QfSQByvexJ/mxus18ZqJeL0JuBNr6TW+Ce36J7P44Y38+HolLssJxhRCoU4gnDGxBT++tZ+lWfm4q8V9R4M0pYXA5uZxY5k6dQrjbxvPoo8+lXETwgpSt9U+VC1BxIHYOj0TujFtxER2lwoLgghSrJABjy5b58xW/bjnklvYXrCLrft306vdaWzasZEd+3O57qIRHKwuZMqCmZimydTL76ZP0x7krHmfNumtiPfE8NHaz+nfpjf9Ovdh/vK3yV77EV3jT+HB6/5CSXUVK7f8QL+OXdm3bzeb83fyh4HDKA2VSwvC3sDB+gLANhl301juvXcqjz06izlzXsAwDrvGlEA41teWOk4RUASOB4ETXiCIdUHXddLT0/F4POTn5xMOhUlJTSExIWpB+A0EQl3OgYgFEKlvLc51c9XTmY5AuO1oAqGX3L0vuH4tZWuQQYkxmWHueOc89uUXkX3DRsK5PmzdJKJH6DoyngundmTbkoMsmrQTd3U82CYREdCmabQYCJe/0gWXSH0sNtDDPhk1r1sRIikhLMPFB3duYNeSAF7LTUJfkyFPZRLjd/HqmDVUbzSi7qT6RXrs9HIue+w02vVM5e1b1nNgazmj5veUQY4v3/QN7vxUNNuHboTo3K8Vg0a1Jba7iRUbQNSHsrwRXLrbEQivleOyRPaFLgMbTXeIPremMfBPjkBYlpWPq1rEakRrMUgrgc2ke+7m9tvHM3r0aJYtXS5rDhwpEOr+MWQ+haXTI6Eb9w+fyC7pYogKBB2Zpnhmy37cM3i8DK4sC1fz7tJslu/5lpYpzZl8+e0UVZcw9d2ZWOEI9115N/2b9iKkhdi8Zwtzly1gV81ebjlvDOd3PYfXlr9F9rr3OC2+HQ9fN0W6ICoCFeSs/JicTUvo0rwtkwffSVWolhlSIByol6kg3GKjRo8kK+sRnn/+rzz26OPSbVb3UQLheLzy1DUUAUXgWAmc8AJBDES4ElJSkmW2Qnl5uXzpit8TogKhorxC7n6P70e82MXiKgRCmIxzjahACJB929qjWBB+IhCwiOkiBMIF7MsvJHvMBkJ5QiBYRLQw3UbGc/6UjmxfWsjHk7fjqY7FtjUiIttB08g4U+eKV7oQrDbZ9VWhjE+QlflkVoMFEY31bx2keLOoF+Ah+XSLIbNPI8bj4ZVRq6nd6paBnocTGR16preWbqOTuOiezqyck0fh7houvr8j376zg2+eKMZtedAsF026hLhmVm9IN1n9/h72ryslYtr0G9mWTr3TWTxzEz++Vo3LdIIQZX0Hd7CeQPh85kGMKmFhEFkQ0Wh+y+SPN4/jL1Mmccftd/DRhx+jaa7/Z4Fg644rYkDTPtw3dCJlZeXM++wNvj24joDLpGfzTky67FbyivKZ9o/HsawIf77kds5tOZDPNi/njVVvcyBchMvyMOF3tzDw1H7M/ew1Pt7yT9r4M3hk5DR8lsELS17m67zV1NpBejfrwuTBEyisLpIC4UCktJ5AMM0Q48bdwLT7p0n3yd/mvHAoOFPaTlSQ4vH9F1ZXUwQUgf9I4IQXCMIE26JFCzweN5GIGS2WgwxUFJYFMxIhGApy8GCBNOcet3L3IlBOpqeZovw/GefBFbMzKd5eS84d6zD3x0ZrA1h4WtUwbF6dQPg3ZWuEi8EmpkvoCIGwjnBejLRGiPiGU6+J4cL7O5G3sowP7tqMUenDsjxOHL+uEd85yIj5XbFNjQ+nrKVolRAGYqduy2wBTfNgl5uYYgev66SIGARhQfB4eeX676jd5kUsokf0JHQeFM0ktkuQa1/oTWlukGC5TbMefnLuXkPJ1140XTDWaHeNxuB7u7LruzIWTVqPXuUiEhPh4hmd6XpxMz7N2sS6+TVSIDgxAzYRrwhSTGfAhAxpQVg+cz9GjUcGGrpkKqAtYwquvHIIjz8+i6ysLF6c97ITb3CEi6HuiZalmYWLIb4L9w+/m11lu2WQYrFdKZNaROGj0/wdmH6NcAdUkPXeM+wL75MxDRd2OItxF45i9eYfmLXsBSyXxfU9hnHd6Vczf81CFvywAFML47f8PDh0Mm2ateXxfzzHd4VraGLGkzVyOk38cUzOnsHuShGMqHP+KQO5/eyb2VSwmcf+OZtSszZ6q3WcLabeO5kbbhgjYxDezc6p14RCCQT1tlYEFIETicAJLxCECEhLS8EQUetHlKMV7gZhnhW55MFgkKKiIikOjldDHFmWNyZEXAtdpi827+/n/Ls7UZ4X4LOHNxM8qGFVeKkuDOFrGWTY3B7EtvTwbp2LAYjpEuT2dy5kf34B2WPWE871S4EgxtHiAp3LZmcSKbVZkrWFwm0BPG43wUKT6nIDO66KQXdlcPrwNpR+F+DLZ7ZRdCCIL9HDWUN7YlbDx3O+xQq75S41uY/N0CeFQPAw//rvqTkkEH7yOIr6CO5yzn6gDd1/30pa//O3lPHhn7YSyY+RFQyxw7QYYjJ0Rg8CeRofTPsRq8ykac9EBt3VicQMF5/N3MT6l8px4cVICBPb1MLyQ9dhLeg2sgXbFxewcs5O7IBGbZEfu1gILlEdQqdvv968/PI8lixdysQJd2OK2sxHEQiy0JSt0Sv+NB4Y/md2lu3h4ewnKabCKYVsh0mOxDLx0jvo3LI7C9csYsWWZcR5Yrj5vFE0S2rNS/98maV538i0zR7J3fjzZXdSYpbw989epKS6hB4tuzHmjOvYV15C1nuzOGCX4g7CnReM4qwug/ho0xKW/vCV1FmjzryKfhl9eHPVP3hnQ7YUgUcKVvEIv/rqq/Ts2Z2bb75VZjEc+bwqgXAivRrVvSgCisAJLxAO7RYPucqdH1JTkklMSjxUKOl4CYO6+xHXS+qmMeyBfnibmpj+MO4mNoTBKjEwQh42fFTIZ8+tJyYdGaQY29JL9siNFK11yivHZga48+2L2H/gIO+O2UBwnxBBojywhaulyQUPtuKUQaloJW5C5cKXr/HlCxvY+GEJIrbNaBFh4B2t6HxBc1whL7XFNu4EDdsIsHVRPl88tg8t7EXXPCT2srji6VNx+zy8Pmo1VVu90t8vjQZH/B84TY6CxA80Gf5sP7wJbr6YtZm188sh4HWKNNkW3nZVXPRgR9oOSCFy0IMVMNFiI0R8EeKSfayas4tVz5dgmF4yh8Vz7rgO2D4TLd7ESrTRqzQo17FCLr6cs4O12QdkbwMRUtk8owXzX39VXIbh1wynqLj0qALBEmYCW6d/fBfuHTGRnaXbmf7uU5RqNbKIk7DvGCJGIfVUbjznRponNeNAbSF+j49U3c/ybd/y0qo3KI6UyDgJEVMwou/lXNL1IqoIURkO0NybSE1FFS99nc1X+1ZgCh1DkC4pHbj57HE0T8mgMFCJoWmke/z8uP3f/PeKt9gfOSDn60i2LTKasXDhu7Ly541jbyI3d1+9DgxKIKgXsiKgCJxIBE4agfBTaKLUcmJiNIuhTGQxHN+PaWt4Wofoelkq7ibRPH1ZvdApmCSqBB34roI9X1Six2p0vSYNV7zOhjcqCBwQf7Yx0qoYNLI9FdXVbHq7hEilhqm5ZOR/RAugN6+iy5XNadmjiXRX5G8sZ9OiIoLbHKuArRloidW0ONNHx3Oa4k1wUXEgwNalBZSuCeMq8zv5AS4ProxaMoc0QdRIXLeggFCRD5dsdVifm+wLIYIh46rIvLopsak+1r2dT2ivW5YYll2oNBe628bIqKLTkDRSO4kGSBZblh3A5TZo2T2ZorUBdnxWgxXWST3dpP05KSKtwCmnLIRJXY8nU2PvkjJKVotumIaou4jfH8P0GdO54srLGTNqLF+v+OaoAsGp6qzTztOa8zLPoiRYyJINyyjXwxiyT4TTYtlt27SPacdZ7frTJq0Z4bDFD7kbWJn7PaVmidNxUvokLJKIp396X3q1706SJ5aC8oN8uW0VGyu2EzBEkyVxmKg26aatrw3ntB9I24zWhC2LdXt+ZOXu7ymKlMhYkboID/kdTeP3vx/M0888xRtvvMnDD2URDh/RnVLFIBzff2B1NUVAEWiQwEkrEOLiYvH5fFRVVRMIBBoc6K99gOzhqIUI67UgyhUfeYFoAwPdNHCbfln2OGwEpM/fbcbKAj5ON4MgET0gF3tPJMZZ0GSXQkP6zy07QtBdixFjSZ+6WWNjRGJkZoATXOhB1yyCRjW2L4DhWbuNGQAABI5JREFUsjFD4A4kOSWRiWBblizJHDZCmK6gWPvxmn6nr8NR2gzLaoW202ch5KrFsi08Zqws8yzuyWmU5JRwFot5tbsa3ScWfBuj1ivvP+IJONaAsF+a+iN6EEsXi2v9QFLHM6/hNr24Td/hgEkNzjjjDP72tzl8/PEnPPzwI1RV1/y8iJfTJAKXKcSLCGQ0sVwiTdSZDNlOS3ZoFPdt4I3oxNkuLFunzBWSMQZO70qRiyJMMk7DaSHQvGGdWNug1g5R5Y1IYSTiHcT5HMOLyA/V8UW8uMU5gVojSMRlIgIp6gd/aojnddZjM+nXty9jb7yJtWvXHtHhs6654/GtBvpr/0+o8ykCisD/LQInrUBwpqEu+Ou3nJTDbZPqm+rrwv/q+i8epZ1vnYPaqTF8KM9f7jijw5Nrkfwl2v3P6WgUrfAv7Oh1rZ7EYXUL8OGWzNFWiRLQ4TPUFc/8ifngEMbDXJ1aiMKqcDTGTlvjurNI2SDbVTuWAl20jj7UafMwp7pTOUM+8h7qfnYact04dgw33TSOJ554irfefjsa8f9Tk0f0bEcRO3Xo5JVlIypnNE6RJfFz9LtRyLJRpbxfJ5bl8N04Y5ffrRMH0T/+UmvsenpRg2v/MIKJE//E07Of4e13FhCJCOvBYahOZ9Bfmo/f8vlW11YEFIHGSuAkFwgnwrT9dBmpu6fDi+xPj4i2UDr6mhv9upNAeaQH4AiBcAzDjhox6h35S3f6n093hKxw9EiDn6Mtc8fwtXrnFQu01+vlvvumMnDgAIYNG05ZmejJ8POz14mohu7taEzqLvqf2AhrSp33SKZkOj0sj6k4lxhH69YtWbDgHRYuzOG5554nGAydIOK2walUBygCikAjJqAEwq8w+f9p4am38///vFadoUHuZqNGh4ZO+b8TBT8/69HH+HPR8mtdT9yBaOucnJxMt25d+frrb2S1w/oWh4ZGf1hO1BcozhL/v9uv11lpxLeP4QxC6Pi8nHnmQL7/fjWVlZXHLxW3YTzqCEVAEVAEfpGAEgjq4TjhCdSJocPuihP+ltUNKgKKgCJw0hNQAuGkn8LGNIATIeakMfFWY1UEFIHGTEAJhMY8+2rsioAioAgoAorALxBQAkE9GoqAIqAIKAKKgCLwMwJKIKiHQhFQBBQBRUARUASUQFDPgCKgCCgCioAioAg0TEBZEBpmpI5QBBQBRUARUAQaHQElEBrdlKsBKwKKgCKgCCgCDRNQAqFhRuoIRUARUAQUAUWg0RFQAqHRTbkasCKgCCgCioAi0DABJRAaZqSOUAQUAUVAEVAEGh0BJRAa3ZSrASsCioAioAgoAg0TUAKhYUbqCEVAEVAEFAFFoNERUAKh0U25GrAioAgoAoqAItAwASUQGmakjlAEFAFFQBFQBBodASUQGt2UqwErAoqAIqAIKAINE1ACoWFG6ghFQBFQBBQBRaDREVACodFNuRqwIqAIKAKKgCLQMAElEBpmpI5QBBQBRUARUAQaHQElEBrdlKsBKwKKgCKgCCgCDRNQAqFhRuoIRUARUAQUAUWg0RH4H6k1ykFdVJOuAAAAAElFTkSuQmCC;" vertex="1" parent="1">
                    <mxGeometry width="520" height="484" as="geometry"/>
                </mxCell>
            </root>
        </mxGraphModel>
    </diagram>
</mxfile>
